<?xml version="1.0" standalone="no"?>
<!DOCTYPE svg PUBLIC "-//W3C//DTD SVG 20010904//EN"
 "http://www.w3.org/TR/2001/REC-SVG-20010904/DTD/svg10.dtd">
<svg version="1.0" xmlns="http://www.w3.org/2000/svg"
 width="1024.000000pt" height="1024.000000pt" viewBox="0 0 1024.000000 1024.000000"
 preserveAspectRatio="xMidYMid meet">
<metadata>
Created by potrace 1.11, written by Peter Selinger 2001-2013
</metadata>
<g transform="translate(0.000000,1024.000000) scale(0.100000,-0.100000)"
fill="#000000" stroke="none">
<path d="M4424 8790 c-9 -9 -42 -12 -99 -8 -45 3 -211 -36 -232 -55 -12 -10
-26 -16 -32 -12 -6 3 -25 -1 -43 -9 -17 -9 -44 -16 -59 -16 -15 0 -31 -4 -34
-10 -3 -5 -15 -10 -26 -10 -10 0 -19 -7 -19 -15 0 -10 -10 -15 -26 -15 -15 0
-32 -7 -39 -16 -6 -9 -32 -18 -58 -21 -34 -4 -53 -12 -66 -29 -11 -13 -26 -24
-34 -24 -9 0 -28 -11 -43 -25 -15 -14 -33 -25 -42 -25 -8 0 -31 -13 -52 -30
-21 -16 -46 -30 -56 -30 -23 0 -36 -9 -50 -35 -6 -11 -27 -29 -47 -40 -20 -11
-37 -25 -37 -31 0 -7 -12 -15 -27 -19 -26 -6 -73 -49 -73 -66 0 -4 -22 -21
-49 -37 -27 -17 -61 -46 -75 -65 -15 -20 -42 -42 -61 -51 -20 -10 -32 -22 -29
-29 5 -13 -38 -57 -56 -57 -6 0 -10 -4 -10 -10 0 -5 -16 -24 -35 -41 -19 -18
-35 -38 -35 -45 0 -19 -66 -120 -89 -136 -11 -8 -25 -27 -31 -43 l-11 -30 25
24 c14 14 26 30 26 38 0 7 5 13 10 13 6 0 21 10 33 23 53 55 127 119 122 104
-5 -12 -2 -14 14 -10 25 6 26 0 5 -32 -16 -24 -15 -25 5 -25 14 0 21 6 21 18
0 27 9 32 37 21 20 -7 30 -6 44 7 10 9 16 21 13 26 -3 5 6 6 20 2 20 -5 25 -3
21 7 -3 9 9 21 30 31 19 10 35 13 35 8 0 -6 5 -10 10 -10 6 0 10 9 10 19 0 25
31 37 42 16 5 -8 15 -15 23 -15 8 0 18 -8 24 -17 15 -27 22 -11 11 26 -8 29
-7 31 6 20 9 -8 18 -9 22 -3 4 5 25 9 47 9 22 0 43 4 47 10 5 6 11 6 19 -2 9
-9 17 -8 35 4 13 8 24 11 24 6 0 -5 6 -17 13 -27 13 -18 15 -17 40 8 19 19 28
23 31 14 3 -7 9 -26 14 -43 l10 -30 1 27 c1 20 6 26 20 25 13 -1 17 -7 14 -22
-4 -15 -2 -17 5 -6 7 9 12 10 16 2 4 -6 11 -9 16 -6 5 3 11 -8 15 -24 5 -23
11 -29 31 -27 13 0 24 5 24 9 0 4 16 15 36 23 34 14 35 16 30 57 l-5 42 10
-35 c21 -70 28 -78 28 -37 1 26 5 37 14 34 7 -2 11 -16 9 -32 -3 -25 -2 -27
11 -16 9 7 14 18 11 26 -3 7 -1 16 5 20 7 3 8 0 5 -9 -3 -9 -1 -16 5 -16 7 0
14 6 17 14 3 8 15 13 28 12 21 -1 21 -3 9 -39 -11 -32 -11 -40 0 -51 11 -11
20 -11 50 -1 32 11 36 11 26 -1 -13 -16 -2 -37 14 -27 7 4 7 0 -1 -10 -17 -20
-7 -38 15 -30 11 4 14 3 9 -5 -5 -8 2 -12 21 -13 26 0 26 -1 7 -9 -31 -12 -39
-30 -15 -30 12 0 21 -7 21 -15 0 -8 7 -15 15 -15 8 0 15 4 15 8 0 5 7 17 16
28 15 18 15 18 9 -3 -4 -14 -2 -23 5 -23 7 0 14 9 17 21 5 18 11 20 39 14 21
-3 34 -2 34 5 0 24 20 51 32 44 3 -2 12 2 20 9 7 8 26 17 42 21 18 4 26 12 22
21 -3 9 0 12 10 8 9 -3 13 -13 9 -27 -5 -17 -1 -15 24 11 16 17 32 28 36 25 9
-10 85 -10 85 0 0 4 6 5 14 2 8 -3 17 0 21 5 3 6 11 9 16 6 5 -4 16 1 25 10
12 12 19 13 30 4 10 -8 17 -7 29 5 9 8 22 13 29 10 8 -3 17 -1 21 5 3 6 16 11
28 11 20 -1 20 -2 5 -11 -25 -14 -23 -32 3 -24 18 6 20 4 14 -15 -7 -21 -6
-21 14 -3 12 9 21 23 21 30 0 19 37 16 50 -4 8 -13 13 -14 16 -5 3 6 13 12 21
12 12 0 13 -3 4 -13 -17 -22 -1 -27 34 -13 30 13 32 13 28 -5 -3 -11 0 -19 6
-19 7 0 9 5 6 10 -3 6 3 10 14 10 11 0 24 -6 28 -12 12 -20 52 -17 59 4 3 11
15 18 29 18 13 0 31 3 39 6 12 5 15 2 10 -10 -4 -11 -1 -16 11 -16 9 0 13 -5
10 -11 -4 -6 -19 -7 -36 -4 -18 4 -29 3 -29 -4 0 -6 9 -11 20 -11 11 0 20 -5
20 -10 0 -6 12 -15 26 -20 17 -7 24 -15 20 -25 -3 -9 0 -15 9 -15 8 0 15 -9
15 -19 0 -11 6 -22 13 -24 6 -3 2 -6 -10 -6 -12 -1 -25 -5 -28 -11 -4 -6 1 -7
10 -3 15 5 15 3 4 -15 -10 -16 -17 -18 -31 -11 -14 8 -16 6 -11 -8 3 -10 10
-23 15 -30 6 -7 7 -17 3 -24 -5 -8 -1 -9 13 -5 22 7 34 -5 39 -39 6 -32 -5
-49 -21 -35 -11 8 -20 9 -36 0 -16 -9 -21 -8 -26 4 -15 38 -122 73 -139 46 -5
-8 -11 -7 -21 1 -25 21 -25 3 1 -21 17 -16 22 -27 16 -39 -7 -13 -4 -16 18
-17 53 -2 82 -14 79 -32 -2 -11 3 -16 14 -14 13 2 16 -2 11 -15 -3 -10 -10
-23 -15 -30 -12 -15 -2 -33 18 -33 8 0 14 -4 14 -10 0 -5 -9 -10 -20 -10 -11
0 -20 -4 -20 -10 0 -14 33 -13 48 2 9 9 12 9 12 -2 0 -13 1 -13 9 -1 8 12 11
9 16 -11 5 -19 1 -32 -14 -47 -15 -15 -21 -17 -21 -7 0 8 4 16 10 18 6 2 5 9
-1 18 -8 11 -12 12 -16 3 -2 -7 -11 -13 -19 -13 -8 0 -14 -5 -14 -11 0 -6 -9
-9 -19 -6 -13 3 -18 1 -14 -9 2 -7 17 -15 31 -17 25 -4 24 -4 -5 -6 -17 0 -33
5 -35 11 -4 10 -10 10 -31 1 -16 -8 -28 -8 -31 -2 -2 5 -3 4 -2 -3 1 -7 13
-15 27 -16 33 -5 49 -22 20 -22 -12 0 -19 -4 -16 -10 9 -14 -18 -13 -33 2 -6
6 -15 9 -18 5 -4 -3 1 -13 10 -23 18 -18 86 -25 87 -9 0 5 5 -1 10 -14 5 -13
7 -32 4 -42 -4 -11 -4 -19 -1 -19 14 0 56 24 56 32 0 5 5 6 10 3 6 -3 10 -11
10 -16 0 -6 -4 -8 -9 -4 -6 3 -12 -12 -14 -32 -3 -31 -5 -34 -11 -17 -9 24
-46 22 -46 -2 0 -16 -16 -19 -25 -4 -3 6 -11 10 -17 10 -7 0 -6 -6 2 -15 7 -8
19 -15 27 -15 9 0 13 -6 9 -15 -7 -19 3 -45 18 -45 6 0 12 -9 12 -20 0 -23 -1
-24 -25 -8 -15 9 -22 8 -34 -4 -17 -17 -5 -38 21 -38 11 0 12 -3 3 -14 -17
-20 3 -30 30 -16 11 7 23 9 26 7 2 -3 -5 -8 -16 -12 -12 -3 -21 -13 -21 -21 0
-11 6 -13 20 -9 11 4 20 2 20 -4 0 -6 -4 -11 -9 -11 -16 0 -21 -48 -9 -77 6
-15 10 -32 9 -36 -1 -5 7 -6 18 -2 14 4 21 0 26 -15 3 -11 12 -20 19 -20 7 0
21 -9 31 -20 10 -11 22 -17 26 -14 5 3 14 -6 20 -19 10 -23 45 -39 89 -41 8
-1 13 -4 10 -7 -8 -10 21 -39 32 -33 6 4 7 -2 3 -17 -6 -20 -5 -22 6 -11 23
21 40 15 33 -13 -4 -16 -2 -25 6 -25 7 0 10 7 6 16 -5 13 -2 15 16 10 13 -3
27 -6 32 -6 4 0 6 -6 3 -14 -4 -10 7 -20 31 -30 20 -8 31 -15 24 -15 -7 -1
-28 5 -47 13 -28 12 -36 12 -52 0 -17 -12 -16 -13 13 -14 34 0 94 -39 62 -40
-9 0 -20 5 -23 10 -3 6 -14 10 -23 10 -15 0 -15 -2 -2 -10 10 -6 11 -10 3 -10
-28 0 -68 35 -67 58 1 15 -3 21 -12 18 -7 -3 -18 2 -25 10 -10 12 -13 12 -24
-2 -8 -11 -20 -15 -33 -11 -12 3 -24 1 -27 -4 -3 -4 -11 -7 -18 -5 -7 1 -9 1
-4 -1 4 -3 7 -13 7 -23 0 -10 5 -20 12 -22 6 -2 8 -10 4 -16 -8 -13 -27 -16
-25 -4 3 19 -2 23 -17 11 -13 -10 -17 -10 -26 2 -7 11 -11 11 -15 1 -4 -10 -8
-10 -19 -1 -11 9 -15 8 -20 -5 -3 -9 -16 -16 -28 -17 -21 0 -21 0 2 -11 12 -6
22 -15 22 -20 0 -12 -12 -9 -34 7 -26 19 -40 19 -32 -1 4 -12 1 -14 -13 -9
-11 3 -22 1 -25 -4 -4 -6 -14 -7 -23 -4 -11 4 -14 3 -9 -5 8 -13 -1 -15 -71
-15 -23 0 -40 -4 -37 -8 3 -5 12 -9 20 -9 8 0 14 -4 14 -10 0 -5 -8 -10 -18
-10 -10 0 -24 -6 -31 -12 -11 -10 -13 -10 -7 0 9 14 -3 16 -24 2 -13 -9 -13
-11 0 -20 12 -8 12 -10 -5 -8 -39 3 -76 -2 -72 -9 3 -5 -13 -8 -34 -7 -29 0
-46 -6 -64 -24 -16 -15 -31 -22 -41 -18 -9 4 -27 0 -40 -9 -13 -8 -29 -12 -37
-9 -7 2 -26 0 -41 -6 -25 -9 -27 -9 -20 12 6 19 5 20 -7 8 -20 -21 -53 -73
-54 -85 -1 -5 -9 -27 -18 -47 -9 -21 -17 -42 -17 -48 0 -6 -5 -8 -12 -4 -6 4
-9 3 -5 -2 3 -5 -1 -18 -9 -29 -13 -17 -16 -18 -25 -5 -8 11 -9 9 -3 -10 4
-14 11 -28 16 -31 5 -3 1 -14 -9 -24 -17 -17 -17 -18 0 -12 23 8 22 -8 -1 -25
-24 -16 -42 -51 -42 -77 0 -12 -5 -21 -10 -21 -6 0 -9 -3 -9 -7 3 -20 -3 -29
-31 -41 -16 -8 -30 -20 -30 -28 0 -8 -3 -14 -7 -14 -5 0 -15 -13 -25 -29 -15
-28 -15 -30 0 -36 12 -5 13 -9 5 -12 -7 -3 -13 -21 -13 -41 0 -19 -8 -44 -17
-54 -16 -18 -16 -21 0 -47 22 -37 21 -41 -3 -41 -13 0 -18 -5 -14 -15 4 -8 10
-12 15 -9 5 3 9 -4 9 -16 0 -12 -4 -18 -10 -15 -6 3 -10 -4 -9 -17 0 -13 3
-17 6 -10 4 10 8 9 19 -5 18 -24 17 -36 -1 -29 -18 7 -38 -35 -29 -59 4 -10 0
-15 -10 -15 -21 0 -21 -16 0 -24 10 -4 13 -13 9 -27 -5 -16 -4 -19 6 -14 9 6
11 3 6 -8 -4 -10 0 -20 11 -26 16 -10 16 -10 -1 -11 -16 0 -18 -5 -12 -42 4
-24 12 -46 18 -49 5 -4 7 -11 3 -17 -3 -5 1 -9 10 -8 11 1 17 -9 19 -32 1 -18
8 -39 15 -47 7 -8 9 -22 6 -31 -5 -14 -4 -15 8 -5 8 7 12 20 9 29 -4 14 -3 14
5 3 8 -11 16 -10 43 10 40 27 112 82 119 89 3 3 32 27 65 53 33 26 66 53 74
59 11 10 16 9 19 0 2 -7 13 -12 25 -12 22 1 22 1 2 12 -11 6 -22 13 -24 15 -9
7 63 63 75 59 8 -3 10 3 7 17 l-6 22 22 -22 c22 -24 41 -30 41 -14 0 5 -7 14
-15 21 -23 19 -18 39 15 70 17 15 30 33 30 39 0 6 5 11 11 11 6 0 9 10 7 23
-2 16 -9 21 -24 19 -12 -1 -27 4 -34 13 -7 8 -17 12 -22 9 -6 -4 -5 3 1 15 14
26 28 27 34 4 4 -17 5 -17 6 0 0 9 7 17 15 17 20 0 29 -17 14 -24 -7 -4 -2 -4
11 -2 14 3 31 1 37 -5 9 -7 21 -3 43 17 32 28 46 69 16 44 -8 -7 -15 -8 -15
-2 0 13 25 33 33 26 3 -4 20 -1 37 4 22 8 29 8 24 1 -4 -8 3 -9 24 -4 18 3 33
2 37 -4 3 -6 19 -9 36 -6 33 6 41 -17 12 -34 -17 -10 -17 -10 0 -11 10 0 15
-4 12 -10 -3 -5 0 -10 8 -10 9 0 13 8 10 23 -3 15 3 26 18 35 19 12 21 12 16
0 -4 -11 1 -14 20 -10 22 4 24 2 18 -17 -4 -13 -2 -28 5 -36 7 -8 10 -22 6
-30 -3 -8 -1 -15 4 -15 6 0 10 6 10 13 0 13 46 38 55 29 3 -3 5 -16 5 -28 0
-14 8 -25 20 -29 22 -7 27 -30 8 -39 -7 -3 -3 -3 9 0 29 7 113 -6 113 -17 0
-9 -34 -15 -130 -23 -37 -3 -59 -2 -52 3 9 5 -5 10 -39 14 -29 4 -55 10 -58
14 -8 11 -61 14 -61 3 0 -5 -3 -16 -6 -24 -5 -12 -2 -15 12 -10 15 6 14 2 -6
-17 -22 -21 -22 -24 -7 -27 28 -6 48 6 45 24 -2 9 3 19 10 21 7 3 10 -1 7 -9
-10 -28 58 -83 85 -68 10 5 32 5 56 -1 21 -6 57 -11 79 -12 22 -1 43 -6 48
-12 4 -6 11 -3 18 8 5 9 17 17 25 17 8 0 13 -4 10 -9 -3 -5 1 -12 10 -15 8 -3
12 -2 9 4 -3 6 -1 10 4 10 6 0 11 8 11 17 0 9 2 14 5 12 4 -5 -5 -77 -28 -201
-8 -43 -10 -75 -5 -72 4 3 8 15 8 26 l0 21 19 -21 c20 -23 41 -31 22 -9 -15
19 -3 27 25 17 15 -6 26 -6 30 1 4 6 11 6 20 -2 8 -6 14 -7 14 -3 0 15 40 35
52 28 8 -5 5 -10 -8 -15 -14 -5 -8 -8 21 -8 44 -1 71 11 61 27 -3 5 1 12 9 16
10 3 15 -1 15 -14 0 -34 18 -31 36 5 9 19 21 35 26 35 6 0 8 9 5 20 -3 12 0
20 8 20 14 0 37 -24 30 -32 -10 -10 33 -38 49 -32 24 9 20 24 -6 21 -14 -1
-23 4 -26 14 -2 13 3 15 22 12 14 -3 31 -11 37 -19 6 -8 17 -14 24 -14 7 0 25
-10 41 -22 22 -18 27 -19 21 -6 -3 10 -2 20 3 23 4 3 10 -1 13 -7 2 -7 8 -10
12 -6 4 4 3 21 -3 37 -15 43 8 42 27 0 12 -28 15 -30 24 -14 9 17 11 16 22 -5
12 -23 51 -35 61 -18 3 4 0 8 -5 8 -6 0 -11 6 -11 14 0 7 -7 27 -15 42 -20 39
-19 54 4 54 11 0 23 5 26 10 3 6 0 10 -8 10 -8 0 -25 18 -36 41 -12 22 -17 38
-12 35 5 -4 14 1 19 10 6 11 22 17 40 17 17 0 29 4 26 9 -6 10 -48 11 -58 1
-3 -4 -15 -7 -24 -8 -14 -1 -17 4 -14 21 4 20 7 21 28 12 27 -13 47 -2 24 12
-12 8 -11 10 6 10 12 0 27 -7 35 -16 9 -11 22 -14 41 -10 15 3 28 1 28 -4 0
-6 -4 -10 -8 -10 -4 0 -8 -9 -9 -20 -1 -11 2 -20 8 -20 5 0 9 9 9 20 0 17 3
19 17 12 18 -10 43 6 43 29 0 8 -4 8 -15 -1 -12 -10 -19 -10 -27 -2 -7 7 -26
12 -42 13 l-31 1 29 10 c21 8 30 7 36 -3 7 -10 11 -10 24 0 13 11 19 11 31 1
27 -23 16 7 -15 42 -18 19 -29 40 -26 51 2 9 0 17 -5 17 -5 0 -9 9 -9 20 0 22
20 26 38 8 9 -9 12 -6 12 15 0 14 -8 30 -17 36 -17 9 -17 11 2 25 11 8 23 12
27 10 5 -3 8 0 8 5 0 6 -5 11 -11 11 -6 0 -9 6 -6 13 5 15 -16 59 -37 76 -23
19 -20 -1 4 -27 20 -21 26 -42 13 -42 -5 0 -17 14 -28 30 -11 17 -28 33 -38
36 -24 7 -16 28 11 32 12 2 22 8 22 14 0 6 -9 8 -19 5 -16 -4 -21 2 -27 25 -3
18 -14 32 -25 35 -10 3 -19 12 -19 21 0 8 -8 21 -17 28 -11 8 -13 13 -6 14 13
0 55 -39 90 -83 12 -16 73 -87 134 -158 81 -92 115 -125 122 -117 6 9 7 7 3
-6 -5 -13 6 -31 37 -62 24 -24 47 -41 50 -37 4 3 -1 12 -11 19 -22 16 -13 24
16 13 17 -6 22 -16 22 -44 0 -21 10 -51 25 -73 19 -28 27 -59 33 -123 5 -47 7
-100 4 -117 -3 -20 1 -39 10 -50 23 -27 22 -73 -2 -79 -21 -6 -28 -23 -9 -23
8 0 8 -4 0 -14 -10 -12 -6 -15 26 -18 37 -3 38 -4 36 -38 -1 -19 3 -45 9 -58
10 -18 8 -25 -7 -36 -13 -9 -16 -20 -11 -39 4 -19 2 -27 -6 -27 -8 0 -9 -3 -3
-8 13 -9 18 -42 7 -42 -9 0 -7 -65 2 -99 2 -9 7 -26 11 -38 5 -18 2 -21 -25
-19 -20 1 -29 -2 -26 -9 2 -7 0 -18 -4 -25 -5 -8 -3 -28 6 -49 16 -37 11 -71
-11 -71 -7 0 -16 14 -20 30 -9 41 -27 26 -51 -41 -22 -60 -48 -67 -41 -11 2
20 2 29 0 19 -7 -27 -28 -14 -26 17 2 26 -10 35 -22 16 -3 -6 -17 -8 -30 -6
-17 3 -25 -1 -28 -16 -4 -14 -11 -18 -25 -13 -25 7 -31 -3 -21 -35 7 -24 7
-24 8 -2 1 28 21 30 21 2 0 -11 -7 -23 -15 -26 -8 -4 -15 -17 -15 -30 0 -13
-4 -24 -10 -24 -17 0 -50 -34 -50 -52 0 -9 -8 -23 -17 -30 -19 -14 -26 -32
-25 -60 0 -9 -8 -18 -19 -21 -10 -3 -23 -17 -29 -31 -12 -34 -24 -34 -16 0 6
24 5 25 -8 11 -9 -9 -13 -23 -10 -31 3 -9 2 -16 -4 -16 -6 0 -12 6 -15 13 -2
6 -7 10 -10 7 -8 -7 40 -60 54 -60 6 0 7 4 4 10 -3 5 0 7 9 4 8 -3 12 -12 10
-19 -5 -13 61 -84 142 -153 21 -19 59 -53 84 -76 55 -52 72 -63 64 -42 -3 9
-10 16 -14 16 -4 0 -10 7 -13 14 -4 10 -1 13 8 10 8 -3 17 -14 20 -25 10 -30
32 -22 51 16 20 43 24 44 24 6 0 -23 -7 -32 -30 -43 -16 -7 -30 -16 -30 -19 0
-14 40 -41 54 -36 8 3 20 -1 26 -9 9 -10 9 -14 1 -14 -18 0 -12 -14 17 -36
l27 -21 0 26 c0 14 4 54 8 88 8 61 7 62 -17 65 -20 2 -23 6 -16 18 9 13 11 13
20 0 5 -8 10 -10 11 -5 12 102 12 119 3 163 -4 21 -2 32 5 32 6 0 11 6 11 14
0 8 5 18 12 22 7 4 8 3 4 -4 -4 -8 0 -12 11 -12 10 0 39 -7 65 -17 39 -14 53
-15 87 -4 37 11 57 31 30 31 -25 0 -71 73 -96 153 -3 10 -12 16 -19 13 -8 -3
-14 1 -14 9 0 8 -4 15 -10 15 -5 0 -10 6 -10 14 0 8 -7 17 -16 20 -10 4 -14
16 -12 38 3 29 6 33 28 30 14 -2 31 -11 38 -20 11 -15 14 -15 22 -2 7 11 4 17
-10 24 -11 5 -20 15 -20 23 0 8 -5 11 -11 7 -8 -5 -8 -1 0 14 9 17 6 26 -14
50 -14 17 -25 37 -25 45 0 21 25 38 44 31 9 -3 16 -1 16 5 0 6 -6 11 -12 11
-9 0 -9 3 -2 8 20 14 44 57 44 79 0 31 16 37 41 14 25 -23 72 -22 77 3 2 9 8
14 13 11 5 -4 9 1 9 10 0 26 18 8 25 -25 8 -36 24 -32 18 4 -4 17 1 27 16 35
14 8 21 21 21 41 0 17 4 30 9 30 19 0 34 73 27 134 -4 44 -3 57 5 49 16 -16 8
-215 -9 -221 -7 -2 -12 -13 -12 -23 0 -26 -18 -61 -40 -76 -10 -7 -21 -32 -25
-55 -4 -24 -9 -38 -12 -32 -5 16 -40 6 -47 -13 -9 -22 3 -36 20 -22 11 9 14 8
15 -7 0 -18 1 -18 8 -1 11 29 25 25 32 -8 5 -26 7 -27 13 -10 4 11 30 76 57
145 65 160 95 254 113 349 21 110 36 222 35 251 -1 14 2 91 6 172 9 164 3 191
-45 227 -17 12 -36 34 -45 50 -25 50 -127 67 -215 36 -23 -8 -47 -15 -52 -15
-10 0 -2 85 9 104 6 9 5 70 -2 261 -2 56 0 118 5 138 4 20 4 53 0 73 -9 40 8
164 22 164 5 0 6 10 2 23 -11 32 -12 90 -3 103 8 10 8 24 -10 144 -5 36 -7 77
-4 91 3 16 -2 37 -12 52 -9 15 -14 30 -11 35 3 5 -5 17 -17 27 -20 18 -20 20
-4 23 10 2 14 8 10 15 -4 7 -8 28 -9 47 -1 45 -22 120 -34 120 -7 0 -40 55
-40 67 0 1 9 3 20 3 19 0 19 0 -1 34 -11 19 -26 37 -34 40 -8 3 -15 14 -15 25
0 11 -8 25 -17 30 -17 10 -17 12 1 26 18 14 18 16 2 40 -10 14 -24 29 -32 32
-8 3 -14 17 -14 32 0 19 -10 34 -31 50 -27 20 -51 59 -53 88 -1 6 -14 26 -31
45 -16 18 -37 47 -46 63 -9 17 -25 34 -37 40 -14 6 -23 22 -27 47 -5 28 -14
41 -33 50 -15 7 -31 23 -37 35 -5 12 -23 30 -40 39 -26 14 -30 21 -27 46 4 27
3 29 -14 20 -12 -6 -28 -6 -43 -1 -23 9 -23 10 -6 29 17 18 17 20 1 20 -9 0
-19 7 -22 15 -4 8 -16 15 -28 15 -31 0 -37 9 -24 33 9 17 8 19 -7 14 -20 -8
-55 9 -55 26 -1 22 -38 57 -67 63 -20 4 -33 15 -40 35 -8 19 -18 29 -32 29
-12 0 -21 4 -21 8 0 5 -17 14 -38 21 -29 10 -41 20 -48 44 -7 23 -18 33 -46
41 -20 6 -46 23 -58 39 -12 15 -30 27 -40 27 -11 0 -24 9 -30 20 -6 11 -17 20
-25 20 -17 0 -75 33 -75 43 0 4 -13 7 -30 7 -19 0 -30 5 -30 14 0 8 -13 17
-29 21 -16 3 -32 13 -35 21 -3 8 -12 14 -19 14 -7 0 -19 11 -26 24 -11 20 -19
23 -50 19 -27 -4 -41 0 -58 16 -12 12 -26 21 -32 21 -5 0 -11 7 -15 15 -3 8
-17 15 -31 15 -14 0 -25 4 -25 9 0 5 -11 12 -25 15 -14 4 -25 11 -25 16 0 6
-11 10 -24 10 -14 0 -27 4 -31 9 -3 6 -27 13 -53 17 -26 4 -49 10 -52 13 -6 8
-92 31 -139 36 -18 3 -39 9 -46 15 -13 11 -54 16 -205 26 -41 3 -79 9 -85 14
-9 6 -36 6 -105 -2 -8 -1 -37 2 -65 6 -32 5 -54 3 -61 -4z m-849 -760 c3 -5 1
-10 -4 -10 -6 0 -11 5 -11 10 0 6 2 10 4 10 3 0 8 -4 11 -10z m1382 -62 c-3
-8 -6 -5 -6 6 -1 11 2 17 5 13 3 -3 4 -12 1 -19z m-897 2 c0 -5 -4 -10 -10
-10 -5 0 -10 5 -10 10 0 6 5 10 10 10 6 0 10 -4 10 -10z m-290 -32 c0 -5 -7
-8 -15 -8 -15 0 -20 21 -8 33 7 7 23 -11 23 -25z m1330 16 c0 -12 -31 -35 -40
-29 -15 10 -12 23 8 28 27 7 32 7 32 1z m-647 -21 c-3 -7 -9 -13 -13 -13 -4 0
-10 6 -13 13 -3 7 3 13 13 13 10 0 16 -6 13 -13z m925 -51 c-34 -7 -18 -19 22
-17 22 1 40 -1 40 -5 0 -4 9 -10 20 -13 12 -3 20 -14 20 -26 0 -12 5 -21 10
-21 6 0 10 5 10 10 0 6 5 10 11 10 5 0 7 -5 4 -11 -4 -5 7 -15 24 -22 17 -6
31 -15 31 -19 0 -4 6 -8 13 -8 6 0 13 -11 13 -25 2 -22 -1 -25 -20 -20 -17 5
-18 4 -6 -4 13 -10 13 -12 0 -21 -18 -12 -31 -13 -28 -2 1 4 -5 20 -13 36 -11
23 -11 30 -1 34 7 2 10 8 6 13 -3 5 -12 2 -20 -6 -9 -8 -29 -15 -46 -15 -17 0
-39 -7 -49 -16 -19 -17 -39 -11 -39 12 0 8 11 14 28 15 15 0 21 3 15 6 -7 2
-13 12 -13 21 0 12 3 13 12 4 16 -16 38 -15 38 2 0 9 -7 12 -20 9 -21 -6 -28
11 -9 23 17 10 -8 22 -37 16 -13 -2 -21 -9 -17 -15 4 -6 -2 -8 -18 -4 -13 4
-31 7 -40 7 -11 0 -16 9 -16 25 0 14 5 25 12 25 7 0 18 7 25 15 10 12 16 12
34 3 18 -11 19 -13 4 -16z m-148 8 c0 -5 -7 -10 -16 -10 -8 0 -12 5 -9 10 3 6
10 10 16 10 5 0 9 -4 9 -10z m323 -18 c-4 -17 -12 -21 -36 -19 -42 3 -48 26
-6 25 18 -1 35 4 37 11 7 21 12 6 5 -17z m32 -2 c3 -5 1 -10 -4 -10 -6 0 -11
5 -11 10 0 6 2 10 4 10 3 0 8 -4 11 -10z m-305 -30 c0 -5 -7 -10 -15 -10 -8 0
-15 5 -15 10 0 6 7 10 15 10 8 0 15 -4 15 -10z m298 -17 c2 -25 2 -26 -18 -8
-20 18 -18 35 3 35 7 0 14 -12 15 -27z m-164 2 c-4 -8 -10 -15 -15 -15 -5 0
-9 -7 -9 -15 0 -8 -4 -15 -10 -15 -16 0 -12 14 10 38 24 26 32 28 24 7z m-90
-19 c16 -13 26 -28 22 -34 -3 -6 0 -12 6 -15 7 -2 10 -8 6 -12 -4 -4 -15 -2
-25 6 -15 12 -16 12 -10 -3 4 -12 2 -18 -8 -18 -8 0 -19 8 -24 18 -9 15 -10
15 -11 -4 0 -11 -11 -31 -25 -44 -15 -14 -25 -18 -25 -11 0 7 11 26 25 43 14
16 25 36 25 44 0 12 4 12 20 2 10 -7 23 -9 27 -4 11 10 -28 38 -44 32 -14 -6
-18 6 -6 17 10 10 16 8 47 -17z m191 -86 c-3 -5 -10 -10 -16 -10 -5 0 -9 5 -9
10 0 6 7 10 16 10 8 0 12 -4 9 -10z m-231 -35 c3 -8 1 -15 -4 -15 -6 0 -10 7
-10 15 0 8 2 15 4 15 2 0 6 -7 10 -15z m306 -31 c0 -11 -5 -14 -16 -10 -9 3
-18 6 -20 6 -3 0 -2 5 1 10 10 16 35 12 35 -6z m220 -15 c0 -6 -4 -7 -10 -4
-5 3 -10 11 -10 16 0 6 5 7 10 4 6 -3 10 -11 10 -16z m-500 1 c0 -5 -4 -10
-10 -10 -5 0 -10 5 -10 10 0 6 5 10 10 10 6 0 10 -4 10 -10z m-6 -36 c23 -9
20 -24 -4 -24 -11 0 -20 7 -20 15 0 17 2 18 24 9z m-108 -51 c-7 -7 -26 7 -26
19 0 6 6 6 15 -2 9 -7 13 -15 11 -17z m209 7 c3 -5 1 -10 -4 -10 -6 0 -11 5
-11 10 0 6 2 10 4 10 3 0 8 -4 11 -10z m-158 -16 c33 -9 19 -21 -16 -16 -17 2
-28 8 -25 13 6 10 11 11 41 3z m58 -23 c3 -6 -3 -9 -14 -8 -11 0 -17 5 -15 9
7 11 22 10 29 -1z m-40 -41 c-3 -5 -15 -10 -26 -10 -10 0 -19 5 -19 10 0 6 12
10 26 10 14 0 23 -4 19 -10z m-78 -26 c-9 -9 -28 6 -21 18 4 6 10 6 17 -1 6
-6 8 -13 4 -17z m-17 -329 c0 -8 -4 -15 -9 -15 -13 0 -22 16 -14 24 11 11 23
6 23 -9z m34 -70 c-4 -8 -12 -15 -20 -15 -20 0 -17 18 4 23 9 3 18 5 19 6 1 0
0 -6 -3 -14z m-19 -195 c3 -5 1 -10 -4 -10 -6 0 -11 5 -11 10 0 6 2 10 4 10 3
0 8 -4 11 -10z m35 -21 c0 -6 -4 -7 -10 -4 -5 3 -10 1 -10 -6 0 -7 -2 -10 -5
-7 -9 8 6 38 16 32 5 -3 9 -10 9 -15z m124 -114 c15 -23 15 -25 1 -25 -9 0
-13 5 -10 10 3 6 -1 13 -9 16 -9 3 -16 10 -16 15 0 17 18 9 34 -16z m99 -221
c-4 -12 -60 -6 -69 7 -3 5 13 8 34 6 23 -1 38 -6 35 -13z m187 -4 c0 -5 -8
-10 -17 -10 -15 0 -16 2 -3 10 19 12 20 12 20 0z m-230 -20 c18 -12 2 -12 -25
0 -13 6 -15 9 -5 9 8 0 22 -4 30 -9z m395 -60 c10 -16 -15 -80 -31 -80 -18 0
-32 32 -16 38 25 8 10 18 -20 14 -30 -5 -32 -4 -19 12 9 11 24 16 38 13 13 -2
23 0 23 4 0 12 17 11 25 -1z m50 -56 c14 -15 25 -32 25 -38 0 -6 -9 0 -19 13
-12 16 -23 21 -32 16 -8 -5 -11 -5 -7 0 4 4 3 14 -3 22 -22 26 11 14 36 -13z
m-1235 -168 c0 -3 -4 -8 -10 -11 -5 -3 -10 -1 -10 4 0 6 5 11 10 11 6 0 10 -2
10 -4z m1000 -13 c0 -13 -3 -14 -8 -6 -6 9 -11 7 -20 -7 -11 -17 -10 -20 7
-20 11 0 26 7 34 15 13 13 16 13 21 0 3 -8 1 -17 -4 -20 -19 -12 -10 -27 12
-22 12 3 30 2 40 -4 15 -8 18 -6 18 10 0 11 5 23 10 26 18 11 9 -52 -36 -235
-14 -58 -20 -69 -24 -50 l-6 25 -11 -30 c-11 -30 -11 -30 -14 15 -1 29 -3 36
-6 20 -3 -14 -9 -29 -15 -35 -7 -7 -9 -3 -5 13 4 19 2 22 -11 17 -19 -8 -127
-7 -153 1 -9 2 -35 0 -58 -5 -26 -6 -43 -5 -47 1 -4 6 -10 6 -17 -1 -15 -15
-27 -14 -27 2 0 11 -11 12 -47 7 -26 -4 -76 -6 -112 -5 -36 1 -72 -2 -78 -8
-9 -6 -18 -5 -28 3 -10 9 -15 9 -15 1 0 -16 -21 -13 -42 6 -14 12 -17 13 -13
2 4 -11 -5 -14 -45 -14 -52 0 -68 15 -28 27 16 4 18 6 6 7 -10 1 -18 9 -18 19
0 11 3 13 8 5 5 -8 16 -7 42 6 19 9 43 15 53 13 9 -2 17 1 17 7 0 6 9 11 20
11 11 0 20 5 20 10 0 6 7 10 15 10 8 0 15 6 15 14 0 11 8 12 35 6 25 -6 38 -4
46 6 6 8 17 14 24 14 7 0 15 7 19 15 3 8 9 15 13 14 27 -4 63 3 58 11 -3 6 1
10 9 10 9 0 16 5 16 10 0 6 7 10 16 10 14 0 14 -3 4 -15 -8 -9 -8 -15 -2 -15
21 0 42 12 42 25 0 8 14 11 48 7 33 -3 59 1 79 11 17 9 33 14 36 10 3 -3 25
11 49 31 49 40 58 43 58 19z m-1050 -3 c0 -5 -5 -10 -11 -10 -5 0 -7 5 -4 10
3 6 8 10 11 10 2 0 4 -4 4 -10z m1143 -28 c-3 -12 -9 -22 -14 -22 -12 0 -11 7
3 30 15 24 19 21 11 -8z m352 -40 c-3 -3 -11 0 -18 7 -9 10 -8 11 6 5 10 -3
15 -9 12 -12z m-1564 -59 c-12 -20 -14 -14 -5 12 4 9 9 14 11 11 3 -2 0 -13
-6 -23z m1609 12 c7 -9 8 -15 2 -15 -5 0 -12 7 -16 15 -3 8 -4 15 -2 15 2 0 9
-7 16 -15z m487 -41 c-3 -3 -12 -4 -19 -1 -8 3 -5 6 6 6 11 1 17 -2 13 -5z
m-73 -29 c-4 -8 -8 -15 -10 -15 -2 0 -4 7 -4 15 0 8 4 15 10 15 5 0 7 -7 4
-15z m85 -47 c1 -5 -3 -8 -8 -8 -11 0 -21 37 -13 45 6 5 20 -19 21 -37z m-393
-10 c10 -12 13 -18 5 -13 -7 4 -16 3 -20 -4 -4 -6 -15 -9 -24 -5 -9 3 -15 10
-12 15 3 4 13 5 22 2 12 -5 15 -2 10 10 -9 23 -4 21 19 -5z m339 12 c3 -5 -1
-10 -10 -10 -9 0 -13 5 -10 10 3 6 8 10 10 10 2 0 7 -4 10 -10z m30 -30 c3 -5
-1 -10 -9 -10 -9 0 -16 5 -16 10 0 6 4 10 9 10 6 0 13 -4 16 -10z m-30 -30 c3
-5 1 -10 -4 -10 -6 0 -11 5 -11 10 0 6 2 10 4 10 3 0 8 -4 11 -10z m-1665 -25
c-14 -17 -30 -20 -30 -6 0 5 8 12 18 14 9 3 19 5 21 6 2 0 -2 -6 -9 -14z
m1650 -6 c0 -5 -7 -9 -15 -9 -8 0 -15 7 -15 15 0 9 6 12 15 9 8 -4 15 -10 15
-15z m40 -9 c0 -5 -4 -10 -10 -10 -5 0 -10 5 -10 10 0 6 5 10 10 10 6 0 10 -4
10 -10z m-1368 -22 c-7 -7 -12 -8 -12 -2 0 14 12 26 19 19 2 -3 -1 -11 -7 -17z
m53 12 c-3 -5 -12 -10 -18 -10 -7 0 -6 4 3 10 19 12 23 12 15 0z m994 -11
c-15 -9 -32 -2 -24 11 3 5 13 6 21 3 12 -4 13 -8 3 -14z m-1079 1 c0 -5 -12
-10 -27 -9 -25 0 -26 1 -8 9 27 12 35 12 35 0z m1426 -46 l-15 -29 -1 31 c0
34 9 49 23 35 5 -5 3 -20 -7 -37z m-326 26 c0 -5 -7 -10 -15 -10 -8 0 -15 5
-15 10 0 6 7 10 15 10 8 0 15 -4 15 -10z m-1079 -43 c-10 -9 -11 -8 -5 6 3 10
9 15 12 12 3 -3 0 -11 -7 -18z m456 -9 c-3 -7 -5 -2 -5 12 0 14 2 19 5 13 2
-7 2 -19 0 -25z m993 22 c0 -5 -4 -10 -9 -10 -6 0 -13 5 -16 10 -3 6 1 10 9
10 9 0 16 -4 16 -10z m-8 -32 c5 -45 2 -68 -9 -68 -8 0 -13 14 -13 40 0 22 5
40 10 40 6 0 11 -6 12 -12z m-1510 -30 c-1 -7 6 -3 16 10 l18 23 24 -23 c18
-17 22 -18 17 -5 -5 12 -1 17 12 17 11 0 26 2 33 5 10 4 14 -2 14 -22 0 -28 0
-28 -62 -28 -53 1 -60 -1 -45 -13 9 -7 10 -11 4 -7 -18 9 -16 -16 2 -42 19
-28 11 -33 -45 -26 -25 3 -53 6 -62 6 -9 1 -14 5 -12 9 3 4 -1 8 -9 8 -18 0
-107 39 -107 47 0 3 13 3 30 1 18 -3 31 0 34 8 9 23 98 63 121 54 11 -5 19
-14 17 -22z m414 -23 c4 -8 12 -15 19 -15 24 0 27 -34 5 -52 -24 -20 -82 -33
-105 -24 -13 4 -10 14 16 56 31 50 55 63 65 35z m1064 -45 c0 -5 -2 -10 -4
-10 -3 0 -8 5 -11 10 -3 6 -1 10 4 10 6 0 11 -4 11 -10z m-250 -10 c0 -5 -2
-10 -4 -10 -3 0 -8 5 -11 10 -3 6 -1 10 4 10 6 0 11 -4 11 -10z m284 -7 c4 -9
2 -21 -4 -27 -7 -7 -10 -7 -10 1 0 6 -3 18 -6 27 -3 9 -2 16 4 16 5 0 13 -8
16 -17z m-34 -13 c0 -5 -4 -10 -10 -10 -5 0 -10 5 -10 10 0 6 5 10 10 10 6 0
10 -4 10 -10z m-1395 -28 c-3 -3 -11 0 -18 7 -9 10 -8 11 6 5 10 -3 15 -9 12
-12z m1120 8 c-3 -5 -12 -10 -18 -10 -7 0 -6 4 3 10 19 12 23 12 15 0z m238
-17 c-3 -7 -6 -13 -8 -13 -2 0 -5 6 -8 13 -3 8 1 14 8 14 7 0 11 -6 8 -14z
m46 -17 c6 -7 9 -20 5 -29 -3 -8 -1 -18 5 -22 11 -6 15 10 13 50 0 12 2 14 5
6 5 -11 7 -11 15 0 9 13 7 1 -9 -51 -4 -13 -4 -13 6 0 5 8 13 11 17 7 10 -10
-11 -30 -34 -33 -17 -3 -49 33 -38 43 3 3 1 14 -5 24 -11 22 3 26 20 5z
m-1239 -86 c0 -11 -4 -20 -10 -20 -5 0 -10 9 -10 20 0 11 5 20 10 20 6 0 10
-9 10 -20z m187 -27 c-3 -10 -5 -4 -5 12 0 17 2 24 5 18 2 -7 2 -21 0 -30z
m716 -14 c13 0 16 -3 9 -6 -18 -7 -63 17 -55 30 3 5 10 2 15 -7 5 -9 19 -16
31 -17z m-1438 11 c3 -5 1 -10 -4 -10 -6 0 -11 5 -11 10 0 6 2 10 4 10 3 0 8
-4 11 -10z m702 -42 c-3 -7 -5 -2 -5 12 0 14 2 19 5 13 2 -7 2 -19 0 -25z m25
-54 c-8 -15 -10 -15 -15 0 -4 10 -3 15 3 11 6 -3 11 6 11 22 1 23 2 24 6 6 2
-12 0 -30 -5 -39z m408 -164 c0 -5 -2 -10 -4 -10 -3 0 -8 5 -11 10 -3 6 -1 10
4 10 6 0 11 -4 11 -10z m-137 -27 c-7 -2 -21 -2 -30 0 -10 3 -4 5 12 5 17 0
24 -2 18 -5z m-287 -60 c-10 -10 -19 5 -10 18 6 11 8 11 12 0 2 -7 1 -15 -2
-18z m1607 -68 c6 -49 6 -49 -8 -20 -8 17 -14 48 -14 70 0 51 14 22 22 -50z
m-1393 55 c0 -5 -9 -10 -20 -10 -11 0 -20 5 -20 10 0 6 9 10 20 10 11 0 20 -4
20 -10z m1407 -132 c-3 -8 -6 -5 -6 6 -1 11 2 17 5 13 3 -3 4 -12 1 -19z
m-130 -50 c-3 -8 -6 -5 -6 6 -1 11 2 17 5 13 3 -3 4 -12 1 -19z m-173 -13 c16
-44 17 -113 2 -143 -17 -34 -56 -47 -40 -14 5 9 8 52 8 95 -1 57 1 77 11 77 7
0 15 -7 19 -15z m321 -5 c3 -5 1 -10 -4 -10 -6 0 -11 5 -11 10 0 6 2 10 4 10
3 0 8 -4 11 -10z m-128 -112 c-3 -7 -5 -2 -5 12 0 14 2 19 5 13 2 -7 2 -19 0
-25z m-231 -135 c-11 -11 -17 4 -9 23 7 18 8 18 11 1 2 -10 1 -21 -2 -24z
m251 5 c-3 -8 -6 -5 -6 6 -1 11 2 17 5 13 3 -3 4 -12 1 -19z m-279 -158 c-1
-18 -6 -30 -15 -30 -17 0 -17 47 0 53 6 3 13 6 14 6 1 1 1 -12 1 -29z m42 -15
c0 -7 -7 -21 -15 -29 -9 -9 -15 -21 -14 -28 1 -7 -2 -24 -8 -38 -6 -14 -9 -55
-8 -92 2 -53 0 -68 -11 -68 -10 0 -14 15 -15 53 l-1 52 -11 -45 c-9 -34 -16
-44 -29 -42 -12 2 -16 -2 -12 -13 8 -20 -19 -20 -36 0 -10 12 -10 15 4 15 14
0 14 3 4 20 -16 26 0 40 18 16 13 -19 14 -19 14 7 0 25 12 46 52 88 9 9 14 19
12 22 -8 7 38 107 47 101 5 -3 9 -11 9 -19z m-238 -190 c0 -5 -5 -11 -11 -13
-6 -2 -11 4 -11 13 0 9 5 15 11 13 6 -2 11 -8 11 -13z m178 -104 c0 -10 -7
-24 -15 -31 -13 -10 -19 -10 -33 4 -10 9 -26 16 -35 16 -31 0 -18 19 16 23 64
8 67 7 67 -12z m-160 -11 c0 -5 -4 -10 -10 -10 -5 0 -10 5 -10 10 0 6 5 10 10
10 6 0 10 -4 10 -10z m-170 -29 c0 -10 -7 -22 -16 -25 -12 -4 -13 -10 -6 -19
6 -6 11 -15 11 -19 1 -4 4 -14 7 -23 3 -8 4 -20 1 -27 -6 -18 -36 56 -35 84 2
41 38 68 38 29z m265 -1 c3 -5 -3 -10 -14 -10 -12 0 -21 5 -21 10 0 6 6 10 14
10 8 0 18 -4 21 -10z m-80 -10 c4 -6 -7 -10 -27 -9 -27 0 -30 2 -13 9 27 12
33 12 40 0z m-39 -31 c6 -10 -44 -24 -53 -16 -3 4 -3 13 0 21 6 15 42 12 53
-5z m139 11 c-4 -6 -2 -17 4 -24 9 -11 8 -18 -4 -29 -17 -18 -20 -37 -5 -37 6
0 10 -11 10 -25 0 -31 -17 -33 -22 -2 -2 15 -10 1 -24 -44 -12 -37 -20 -78
-17 -92 5 -25 -14 -74 -24 -63 -4 3 -12 1 -19 -5 -14 -12 -17 -8 -27 38 -5 22
-4 22 25 7 28 -14 29 -14 26 3 -2 10 -10 17 -16 16 -15 -4 -16 13 -1 23 6 3 9
15 6 25 -3 11 -1 19 4 19 5 0 9 17 9 38 0 26 6 41 20 50 11 7 20 18 20 26 0 9
-7 12 -20 9 -28 -7 -25 11 5 27 13 7 27 21 31 32 3 10 10 18 15 18 6 0 7 -5 4
-10z m-265 -10 c0 -5 -2 -10 -4 -10 -3 0 -8 5 -11 10 -3 6 -1 10 4 10 6 0 11
-4 11 -10z m210 -6 c0 -11 -5 -14 -16 -10 -9 3 -20 6 -25 6 -6 0 -7 5 -4 10
10 16 45 12 45 -6z m97 -41 c-3 -10 -5 -4 -5 12 0 17 2 24 5 18 2 -7 2 -21 0
-30z m-267 -22 c0 -11 -4 -9 -15 5 -14 19 -14 19 -15 0 0 -11 -3 -17 -6 -13
-4 3 -3 18 0 33 7 25 8 26 21 8 8 -11 15 -25 15 -33z m70 24 c-7 -9 -15 -13
-19 -10 -3 3 1 10 9 15 21 14 24 12 10 -5z m-220 -24 c0 -6 -4 -13 -10 -16 -5
-3 -10 1 -10 9 0 9 5 16 10 16 6 0 10 -4 10 -9z m260 -16 c0 -8 -7 -15 -15
-15 -26 0 -18 20 13 29 1 1 2 -6 2 -14z m-44 -35 c16 0 19 -16 3 -25 -13 -9
-16 -5 -22 25 -2 14 -2 19 0 13 3 -7 11 -13 19 -13z m-56 -21 c0 -22 -5 -29
-20 -29 -11 0 -20 5 -20 10 0 6 5 10 11 10 6 0 8 7 5 16 -3 9 -3 20 0 25 10
17 24 -2 24 -32z m225 -19 c4 -6 1 -18 -6 -26 -10 -12 -14 -12 -20 -2 -5 7 -9
19 -9 26 0 15 26 16 35 2z m-135 -24 c0 -3 -4 -8 -10 -11 -5 -3 -10 -1 -10 4
0 6 5 11 10 11 6 0 10 -2 10 -4z m-130 -32 c0 -22 -2 -25 -15 -14 -12 10 -13
16 -4 26 16 20 19 18 19 -12z m73 20 c9 -9 -4 -35 -14 -28 -5 3 -9 12 -9 20 0
14 12 19 23 8z m204 -41 c6 4 8 -3 5 -19 -2 -14 -11 -28 -18 -31 -8 -3 -14
-13 -14 -22 -1 -14 -2 -14 -11 1 -5 9 -6 35 -3 58 6 35 8 38 19 24 6 -10 16
-14 22 -11z m-179 -29 c2 -1 -12 -2 -32 -1 -30 1 -32 3 -18 13 13 9 21 10 32
1 8 -6 16 -12 18 -13z m12 -60 c0 -8 -4 -12 -10 -9 -5 3 -10 10 -10 16 0 5 5
9 10 9 6 0 10 -7 10 -16z m160 -94 c-8 -5 -26 -9 -40 -9 -21 0 -22 2 -7 8 10
4 28 8 40 8 17 2 19 0 7 -7z"/>
<path d="M5330 7850 c0 -5 5 -10 10 -10 6 0 10 5 10 10 0 6 -4 10 -10 10 -5 0
-10 -4 -10 -10z"/>
<path d="M5450 7829 c0 -5 5 -7 10 -4 6 3 10 8 10 11 0 2 -4 4 -10 4 -5 0 -10
-5 -10 -11z"/>
<path d="M5475 7770 c-3 -5 -1 -10 4 -10 6 0 11 5 11 10 0 6 -2 10 -4 10 -3 0
-8 -4 -11 -10z"/>
<path d="M3455 7960 c3 -5 10 -10 16 -10 5 0 9 5 9 10 0 6 -7 10 -16 10 -8 0
-12 -4 -9 -10z"/>
<path d="M5116 7914 c-9 -24 -2 -26 12 -4 7 11 8 20 3 20 -5 0 -12 -7 -15 -16z"/>
<path d="M4470 7885 c-7 -9 -8 -15 -2 -15 5 0 12 7 16 15 3 8 4 15 2 15 -2 0
-9 -7 -16 -15z"/>
<path d="M4311 7824 c0 -11 3 -14 6 -6 3 7 2 16 -1 19 -3 4 -6 -2 -5 -13z"/>
<path d="M4905 7720 c-3 -5 -1 -10 4 -10 6 0 11 5 11 10 0 6 -2 10 -4 10 -3 0
-8 -4 -11 -10z"/>
<path d="M5160 7710 c0 -5 5 -10 10 -10 6 0 10 5 10 10 0 6 -4 10 -10 10 -5 0
-10 -4 -10 -10z"/>
<path d="M3700 7700 c0 -5 7 -10 15 -10 8 0 15 5 15 10 0 6 -7 10 -15 10 -8 0
-15 -4 -15 -10z"/>
<path d="M4420 7675 c-11 -13 -10 -14 4 -9 9 3 16 10 16 15 0 13 -6 11 -20 -6z"/>
<path d="M2690 7655 c-8 -9 -8 -15 -2 -15 12 0 26 19 19 26 -2 2 -10 -2 -17
-11z"/>
<path d="M5193 7636 c4 -14 47 -21 47 -8 0 5 -11 12 -25 15 -16 3 -24 0 -22
-7z"/>
<path d="M4990 7540 c0 -5 5 -10 10 -10 6 0 10 5 10 10 0 6 -4 10 -10 10 -5 0
-10 -4 -10 -10z"/>
<path d="M3056 7495 c-3 -8 -1 -15 4 -15 13 0 22 18 11 24 -5 3 -11 -1 -15 -9z"/>
<path d="M5085 7490 c3 -5 8 -10 11 -10 2 0 4 5 4 10 0 6 -5 10 -11 10 -5 0
-7 -4 -4 -10z"/>
<path d="M5100 7460 c0 -5 5 -10 10 -10 6 0 10 5 10 10 0 6 -4 10 -10 10 -5 0
-10 -4 -10 -10z"/>
<path d="M2489 7370 c-56 -59 -168 -334 -195 -478 -7 -40 -16 -77 -19 -83 -7
-10 -17 -269 -11 -269 1 0 17 7 34 16 25 12 32 22 32 44 0 19 5 28 13 26 6 -1
9 -1 5 1 -5 3 -8 17 -8 32 0 15 -4 31 -10 37 -6 6 -3 27 10 61 17 45 18 53 5
60 -15 9 -15 9 24 74 13 22 13 23 -1 11 -14 -11 -16 -8 -20 23 -2 21 1 44 9
53 7 9 13 30 13 45 0 16 4 26 10 22 5 -3 8 0 5 7 -10 27 65 235 109 303 20 31
18 39 -5 15z"/>
<path d="M5026 7201 c-21 -23 -22 -22 16 -39 24 -10 29 -9 39 10 9 16 13 18
20 7 4 -7 11 -10 16 -6 4 5 1 12 -7 17 -20 13 -30 12 -30 0 0 -20 -29 -10 -32
11 l-3 21 -19 -21z"/>
<path d="M4950 7182 c0 -12 19 -26 26 -19 2 2 -2 10 -11 17 -9 8 -15 8 -15 2z"/>
<path d="M4984 7118 c2 -18 9 -34 16 -36 9 -3 11 1 7 12 -4 10 -7 26 -7 37 0
10 -4 19 -10 19 -5 0 -8 -14 -6 -32z"/>
<path d="M5036 7077 c3 -10 9 -15 12 -12 3 3 0 11 -7 18 -10 9 -11 8 -5 -6z"/>
<path d="M4956 7027 c3 -10 9 -15 12 -12 3 3 0 11 -7 18 -10 9 -11 8 -5 -6z"/>
<path d="M4990 7010 c-13 -8 -13 -10 2 -10 9 0 20 5 23 10 8 13 -5 13 -25 0z"/>
<path d="M4910 6990 c0 -5 7 -10 15 -10 8 0 15 5 15 10 0 6 -7 10 -15 10 -8 0
-15 -4 -15 -10z"/>
<path d="M5056 6985 c10 -8 23 -15 28 -15 6 0 1 7 -10 15 -10 8 -23 15 -28 15
-6 0 -1 -7 10 -15z"/>
<path d="M5031 6953 c-11 -13 -11 -17 2 -31 15 -14 17 -14 22 1 4 9 3 22 -2
30 -7 13 -10 13 -22 0z"/>
<path d="M5078 6953 c7 -3 16 -2 19 1 4 3 -2 6 -13 5 -11 0 -14 -3 -6 -6z"/>
<path d="M4740 6840 c0 -5 5 -10 10 -10 6 0 10 5 10 10 0 6 -4 10 -10 10 -5 0
-10 -4 -10 -10z"/>
<path d="M5116 6841 c-4 -7 -5 -15 -2 -18 9 -9 19 4 14 18 -4 11 -6 11 -12 0z"/>
<path d="M5365 6620 c-3 -5 1 -10 9 -10 9 0 16 5 16 10 0 6 -4 10 -9 10 -6 0
-13 -4 -16 -10z"/>
<path d="M5258 6575 c-8 -9 4 -65 14 -65 6 0 8 11 6 25 -4 18 -1 25 11 25 14
0 14 2 1 10 -17 11 -24 12 -32 5z"/>
<path d="M5232 6540 c0 -14 2 -19 5 -12 2 6 2 18 0 25 -3 6 -5 1 -5 -13z"/>
<path d="M5155 6530 c-3 -5 3 -10 15 -10 12 0 18 5 15 10 -3 6 -10 10 -15 10
-5 0 -12 -4 -15 -10z"/>
<path d="M3740 6515 c0 -8 5 -15 10 -15 6 0 10 7 10 15 0 8 -4 15 -10 15 -5 0
-10 -7 -10 -15z"/>
<path d="M2264 6504 c3 -9 7 -52 8 -97 1 -62 3 -69 5 -29 2 28 8 52 13 52 17
0 15 55 -2 73 -22 21 -32 22 -24 1z"/>
<path d="M5290 6509 c0 -5 5 -7 10 -4 6 3 10 8 10 11 0 2 -4 4 -10 4 -5 0 -10
-5 -10 -11z"/>
<path d="M4888 6373 c7 -3 16 -2 19 1 4 3 -2 6 -13 5 -11 0 -14 -3 -6 -6z"/>
<path d="M2271 6300 c0 -14 4 -32 9 -40 9 -13 10 -13 9 0 -1 8 -5 26 -9 40
l-8 25 -1 -25z"/>
<path d="M2690 6252 c-78 -37 -156 -107 -185 -164 -19 -38 -19 -42 0 -34 8 3
15 1 15 -4 0 -6 -5 -10 -12 -10 -8 0 -9 -3 -2 -10 12 -12 56 -1 47 12 -4 7 11
9 43 4 36 -4 43 -3 26 4 l-22 10 21 21 c14 14 28 19 45 15 30 -8 31 -26 2 -26
-19 0 -20 -2 -8 -10 23 -15 40 -12 40 6 0 12 5 14 18 8 9 -5 60 -9 113 -9 65
0 102 -5 113 -14 9 -8 16 -9 16 -3 0 6 -9 14 -21 17 -11 4 -19 8 -17 10 6 6
298 -72 308 -82 3 -3 -5 -3 -17 0 -32 7 -29 2 14 -28 21 -14 38 -33 38 -43 0
-12 7 -16 23 -15 12 2 22 -3 22 -10 0 -20 -38 -47 -65 -47 -13 0 -27 -5 -30
-10 -4 -6 -10 -8 -16 -5 -5 3 -37 1 -71 -6 -35 -6 -74 -13 -88 -14 -81 -9
-192 -36 -240 -59 -60 -29 -130 -89 -130 -112 0 -25 -30 -74 -45 -74 -8 0 -12
-6 -9 -14 3 -8 -3 -20 -15 -27 -19 -13 -19 -14 12 -42 31 -27 44 -29 90 -11
11 4 16 -2 19 -16 3 -22 3 -22 27 -3 23 18 26 19 68 4 43 -15 44 -17 39 -50
l-5 -34 24 23 c17 16 25 19 25 10 0 -11 3 -11 12 -2 17 17 29 15 22 -3 -4 -8
-3 -15 0 -15 4 0 11 12 16 26 10 25 30 25 30 -1 0 -16 28 -10 45 9 13 14 38
20 30 6 -3 -5 -3 -15 1 -21 4 -8 9 -7 15 2 7 11 11 10 23 -6 15 -20 15 -20 16
3 0 23 40 72 59 72 5 0 17 -7 25 -16 15 -14 14 -18 -9 -36 -30 -23 -33 -42 -5
-35 25 6 27 -10 2 -17 -10 -4 -19 -13 -19 -21 0 -18 7 -18 43 -5 15 6 29 8 32
6 2 -3 -15 -13 -39 -22 -25 -10 -37 -20 -28 -22 8 -3 17 -10 21 -16 6 -8 8 -8
8 0 0 14 80 58 88 49 4 -3 0 -10 -8 -15 -24 -16 3 -11 34 5 16 9 31 13 34 10
3 -3 14 2 24 12 10 9 30 18 44 19 14 2 36 14 48 28 27 32 38 33 30 2 -5 -23
11 -45 24 -31 3 3 0 10 -8 15 -11 7 -9 14 15 36 27 25 28 27 7 22 -12 -3 -20
-2 -16 3 3 5 16 9 29 9 13 0 27 5 30 10 3 6 1 10 -5 10 -6 0 -8 5 -5 10 3 6
13 10 21 10 11 0 13 -6 9 -21 -5 -15 -4 -19 5 -14 7 4 10 19 6 36 -5 26 -2 29
29 35 18 3 38 3 44 -1 7 -3 11 2 11 14 0 12 5 21 10 21 6 0 10 -6 10 -14 0 -8
10 -16 22 -18 23 -3 39 -38 19 -38 -6 0 -11 7 -11 15 0 8 -4 15 -10 15 -16 0
-12 -14 11 -39 12 -12 25 -19 29 -14 17 16 39 98 30 107 -11 11 -42 -12 -34
-25 12 -20 -26 -8 -43 14 -10 12 -35 33 -55 47 -24 16 -34 28 -28 34 6 6 21 2
41 -13 29 -22 59 -23 59 -1 0 20 29 9 32 -12 4 -29 34 -31 31 -3 -1 11 -3 34
-5 50 -4 47 -96 194 -112 178 -3 -4 -6 -2 -6 4 0 6 -13 16 -30 23 -16 7 -30
19 -30 26 0 8 -4 14 -8 14 -4 0 -8 8 -8 18 -1 9 -5 30 -9 47 -8 28 -8 29 9 12
23 -22 40 -22 31 1 -16 39 -15 54 2 20 10 -21 22 -38 26 -38 5 0 7 6 4 13 -3
6 -8 20 -12 30 -5 11 -2 17 6 17 8 1 4 6 -8 13 -12 7 -22 15 -22 20 -1 4 -1
15 -1 25 0 14 -2 14 -9 3 -5 -8 -7 -20 -4 -28 3 -7 0 -13 -7 -13 -6 0 -8 5 -5
10 3 6 -8 18 -24 28 -17 9 -33 24 -36 34 -3 9 -13 19 -21 22 -8 3 -12 2 -9 -3
7 -13 -52 4 -71 20 -7 6 -20 9 -28 6 -8 -3 -22 1 -33 8 -16 13 -16 14 -1 15 9
0 28 -4 42 -10 14 -5 26 -6 26 -1 0 11 -38 25 -108 42 -28 7 -47 16 -41 20 6
3 -3 8 -20 11 -17 2 -36 1 -43 -4 -20 -12 -72 -9 -93 6 -13 9 -27 11 -42 5
-13 -5 -29 -6 -37 -3 -8 3 -17 0 -21 -6 -6 -9 -10 -9 -16 1 -6 10 -13 10 -34
1 -30 -14 -59 -16 -51 -3 3 5 -13 12 -37 15 -23 4 -53 10 -66 13 -15 4 -22 2
-17 -5 4 -6 -2 -8 -14 -5 -11 3 -20 0 -20 -6 0 -16 -18 -14 -22 3 -2 11 -21 5
-78 -22z m895 -172 c3 -5 2 -10 -4 -10 -5 0 -13 5 -16 10 -3 6 -2 10 4 10 5 0
13 -4 16 -10z m25 -51 c0 -6 -4 -7 -10 -4 -5 3 -10 11 -10 16 0 6 5 7 10 4 6
-3 10 -11 10 -16z m-70 -45 c0 -20 18 -18 23 4 4 13 5 12 6 -4 0 -12 8 -25 17
-28 9 -3 14 -12 12 -18 -5 -15 -58 -21 -58 -7 0 5 -7 9 -15 9 -8 0 -15 5 -15
11 0 7 -9 9 -23 5 -13 -3 -31 0 -41 7 -14 11 -13 12 11 13 57 3 71 8 65 23 -3
9 -1 12 6 7 7 -4 12 -14 12 -22z m-452 -201 c-10 -2 -26 -2 -35 0 -10 3 -2 5
17 5 19 0 27 -2 18 -5z m-98 -16 c-19 -6 -38 -15 -42 -21 -4 -6 -14 -6 -30 1
-22 10 -22 11 12 21 19 6 49 10 65 10 l30 0 -35 -11z m-110 -32 c0 -8 -7 -15
-15 -15 -26 0 -18 20 13 29 1 1 2 -6 2 -14z m140 -79 c0 -49 48 -135 81 -143
41 -11 11 -28 -52 -30 -35 -1 -72 -4 -82 -7 -11 -2 -24 0 -31 5 -6 6 -29 20
-51 33 -26 14 -41 30 -43 44 -4 29 34 87 68 103 14 6 41 20 60 30 19 9 38 15
42 13 4 -3 8 -24 8 -48z m-230 31 c0 -7 -9 -13 -21 -14 -17 -2 -18 1 -9 13 15
17 30 18 30 1z m915 -8 c11 -17 0 -20 -21 -4 -17 13 -17 14 -2 15 9 0 20 -5
23 -11z m-607 -23 c5 -23 -14 -44 -28 -30 -12 12 -1 56 14 51 6 -2 13 -12 14
-21z m60 2 c-3 -25 -17 -32 -37 -19 -19 12 -6 41 19 41 16 0 21 -5 18 -22z
m-408 -29 c0 -5 -7 -9 -15 -9 -15 0 -20 12 -9 23 8 8 24 -1 24 -14z m840 -14
c0 -9 -9 -15 -22 -15 -21 0 -21 0 -2 15 24 18 24 18 24 0z m-195 -5 c3 -5 1
-10 -4 -10 -6 0 -11 5 -11 10 0 6 2 10 4 10 3 0 8 -4 11 -10z m242 4 c-3 -3
-12 -4 -19 -1 -8 3 -5 6 6 6 11 1 17 -2 13 -5z m-383 -152 c-22 -5 -31 7 -14
18 9 6 17 5 22 -3 4 -7 1 -13 -8 -15z m-144 -13 c0 -5 -4 -9 -10 -9 -5 0 -10
7 -10 16 0 8 5 12 10 9 6 -3 10 -10 10 -16z"/>
<path d="M3200 6276 c0 -2 7 -6 15 -10 8 -3 15 -1 15 4 0 6 -7 10 -15 10 -8 0
-15 -2 -15 -4z"/>
<path d="M3444 6221 c20 -22 26 -25 26 -13 0 4 -10 13 -22 21 -23 14 -23 14
-4 -8z"/>
<path d="M3540 6195 c7 -9 15 -13 17 -11 7 7 -7 26 -19 26 -6 0 -6 -6 2 -15z"/>
<path d="M4470 6185 c0 -8 2 -15 4 -15 2 0 6 7 10 15 3 8 1 15 -4 15 -6 0 -10
-7 -10 -15z"/>
<path d="M3465 6181 c-6 -11 9 -23 19 -14 9 9 7 23 -3 23 -6 0 -12 -4 -16 -9z"/>
<path d="M3637 5953 c-4 -3 -7 -11 -7 -17 0 -6 5 -5 12 2 6 6 9 14 7 17 -3 3
-9 2 -12 -2z"/>
<path d="M4240 5649 c0 -5 5 -7 10 -4 6 3 10 8 10 11 0 2 -4 4 -10 4 -5 0 -10
-5 -10 -11z"/>
<path d="M6370 5610 c0 -6 7 -13 15 -17 24 -9 27 1 5 15 -13 8 -20 8 -20 2z"/>
<path d="M5195 5530 c-3 -5 -1 -10 4 -10 6 0 11 5 11 10 0 6 -2 10 -4 10 -3 0
-8 -4 -11 -10z"/>
<path d="M6380 5490 c0 -5 5 -10 10 -10 6 0 10 5 10 10 0 6 -4 10 -10 10 -5 0
-10 -4 -10 -10z"/>
<path d="M4870 5480 c0 -5 5 -10 11 -10 5 0 7 5 4 10 -3 6 -8 10 -11 10 -2 0
-4 -4 -4 -10z"/>
<path d="M3151 5452 c-13 -25 2 -38 19 -16 9 10 10 18 3 25 -8 8 -14 5 -22 -9z"/>
<path d="M3740 5450 c0 -5 5 -10 11 -10 5 0 7 5 4 10 -3 6 -8 10 -11 10 -2 0
-4 -4 -4 -10z"/>
<path d="M3581 5441 c-7 -5 -9 -11 -5 -14 5 -3 15 1 22 9 14 16 5 18 -17 5z"/>
<path d="M5304 5434 c9 -8 21 -12 27 -8 13 7 -7 24 -29 24 -10 0 -10 -4 2 -16z"/>
<path d="M5090 5420 c0 -5 7 -10 16 -10 8 0 12 5 9 10 -3 6 -10 10 -16 10 -5
0 -9 -4 -9 -10z"/>
<path d="M5040 5399 c0 -5 5 -7 10 -4 6 3 10 8 10 11 0 2 -4 4 -10 4 -5 0 -10
-5 -10 -11z"/>
<path d="M5082 5365 c-7 -8 -9 -15 -4 -15 5 0 15 7 22 15 16 19 -1 19 -18 0z"/>
<path d="M3120 5329 c0 -5 5 -7 10 -4 6 3 10 8 10 11 0 2 -4 4 -10 4 -5 0 -10
-5 -10 -11z"/>
<path d="M3038 5313 c7 -3 16 -2 19 1 4 3 -2 6 -13 5 -11 0 -14 -3 -6 -6z"/>
<path d="M4810 5310 c0 -5 5 -10 11 -10 5 0 7 5 4 10 -3 6 -8 10 -11 10 -2 0
-4 -4 -4 -10z"/>
<path d="M6388 5283 c7 -3 16 -2 19 1 4 3 -2 6 -13 5 -11 0 -14 -3 -6 -6z"/>
<path d="M6402 5178 c6 -18 28 -21 28 -4 0 9 -7 16 -16 16 -9 0 -14 -5 -12
-12z"/>
<path d="M6670 5165 c0 -8 5 -15 10 -15 6 0 10 7 10 15 0 8 -4 15 -10 15 -5 0
-10 -7 -10 -15z"/>
<path d="M6360 5130 c0 -5 7 -10 15 -10 8 0 15 5 15 10 0 6 -7 10 -15 10 -8 0
-15 -4 -15 -10z"/>
<path d="M6242 5098 c5 -15 28 -23 28 -10 0 5 -7 13 -16 16 -10 4 -14 1 -12
-6z"/>
<path d="M4542 5086 c7 -8 15 -12 17 -11 5 6 -10 25 -20 25 -5 0 -4 -6 3 -14z"/>
<path d="M5862 5088 c3 -7 13 -15 24 -17 16 -3 17 -1 5 13 -16 19 -34 21 -29
4z"/>
<path d="M6119 5080 c35 -30 57 -25 27 6 -8 8 -23 14 -33 14 -16 -1 -15 -3 6
-20z"/>
<path d="M6006 5075 c-6 -17 2 -45 14 -45 9 0 20 25 20 46 0 19 -26 18 -34 -1z"/>
<path d="M6051 5041 c-8 -5 -9 -11 -3 -15 5 -3 15 1 22 9 14 16 3 20 -19 6z"/>
<path d="M6270 5040 c20 -13 40 -13 40 0 0 6 -12 10 -27 10 -22 0 -25 -2 -13
-10z"/>
<path d="M6120 5030 c0 -5 7 -10 15 -10 8 0 15 5 15 10 0 6 -7 10 -15 10 -8 0
-15 -4 -15 -10z"/>
<path d="M6180 5023 c0 -6 -3 -18 -6 -27 -4 -11 -1 -16 10 -16 9 0 16 6 16 13
0 16 -20 46 -20 30z"/>
<path d="M6030 5006 c0 -9 5 -16 10 -16 6 0 10 4 10 9 0 6 -4 13 -10 16 -5 3
-10 -1 -10 -9z"/>
<path d="M6358 5014 c-7 -7 3 -54 12 -54 10 0 10 49 0 55 -4 2 -9 2 -12 -1z"/>
<path d="M6071 4994 c0 -11 3 -14 6 -6 3 7 2 16 -1 19 -3 4 -6 -2 -5 -13z"/>
<path d="M6130 4981 c0 -5 -9 -7 -20 -4 -16 4 -20 0 -20 -21 0 -15 7 -29 15
-32 8 -4 15 -14 15 -24 0 -10 6 -21 13 -23 7 -3 5 -6 -5 -6 -10 -1 -18 6 -18
14 0 8 -7 15 -16 15 -10 0 -14 -6 -10 -15 4 -10 -1 -15 -16 -15 -16 0 -18 3
-9 14 7 8 8 17 3 20 -6 3 -15 -1 -22 -10 -20 -23 1 -36 56 -32 42 3 49 6 52
26 2 13 -2 30 -9 38 -9 11 -9 18 -1 26 15 15 16 38 2 38 -5 0 -10 -4 -10 -9z"/>
<path d="M4270 4970 c0 -5 5 -10 10 -10 6 0 10 5 10 10 0 6 -4 10 -10 10 -5 0
-10 -4 -10 -10z"/>
<path d="M6000 4959 c0 -5 5 -7 10 -4 6 3 10 8 10 11 0 2 -4 4 -10 4 -5 0 -10
-5 -10 -11z"/>
<path d="M6200 4966 c0 -2 9 -6 20 -9 11 -3 18 -1 14 4 -5 9 -34 13 -34 5z"/>
<path d="M4591 4928 c-1 -20 -5 -40 -11 -43 -5 -3 -10 -1 -10 5 0 7 -6 5 -15
-4 -8 -8 -15 -20 -15 -27 0 -7 6 -4 15 7 14 19 14 19 15 -3 0 -12 4 -24 9 -28
11 -6 26 96 18 117 -3 7 -6 -4 -6 -24z"/>
<path d="M6037 4953 c-14 -13 -6 -23 18 -23 18 0 23 4 19 15 -6 16 -26 20 -37
8z"/>
<path d="M6167 4889 c6 -22 37 -24 72 -5 17 10 20 15 11 21 -8 5 -18 1 -26 -9
-6 -9 -15 -13 -18 -8 -3 5 -14 12 -25 15 -14 3 -17 0 -14 -14z"/>
<path d="M5930 4880 c20 -13 33 -13 25 0 -3 6 -14 10 -23 10 -15 0 -15 -2 -2
-10z"/>
<path d="M5990 4865 c0 -8 4 -15 9 -15 5 0 11 7 15 15 3 9 0 15 -9 15 -8 0
-15 -7 -15 -15z"/>
<path d="M5948 4843 c6 -2 18 -2 25 0 6 3 1 5 -13 5 -14 0 -19 -2 -12 -5z"/>
<path d="M4720 4739 c0 -18 2 -19 15 -9 15 12 12 30 -6 30 -5 0 -9 -10 -9 -21z"/>
<path d="M4562 4710 c0 -19 2 -27 5 -17 2 9 2 25 0 35 -3 9 -5 1 -5 -18z"/>
<path d="M4744 4707 c-3 -10 -3 -36 0 -59 5 -31 3 -45 -11 -60 -14 -15 -15
-21 -4 -27 10 -7 10 -12 0 -30 -8 -11 -19 -21 -26 -21 -7 0 -13 -4 -13 -9 0
-19 -82 -53 -109 -45 -14 4 -30 6 -34 5 -4 -1 -7 7 -5 16 2 12 -3 18 -17 18
-11 0 -26 4 -32 8 -8 5 -13 4 -13 -2 0 -5 -20 -8 -45 -7 -25 2 -60 0 -78 -4
-17 -4 -26 -8 -19 -9 7 -1 10 -6 7 -12 -4 -6 -13 -8 -20 -5 -8 3 -16 -5 -19
-20 -4 -14 -14 -24 -24 -24 -10 0 -23 -5 -30 -12 -9 -9 -12 -9 -12 2 0 13 -2
13 -10 0 -5 -9 -5 -19 1 -26 6 -7 4 -16 -6 -24 -8 -7 -15 -17 -15 -22 0 -5 -7
-16 -15 -24 -21 -21 -19 -32 8 -36 15 -2 25 -13 32 -35 5 -18 13 -33 17 -33 4
0 8 -7 8 -15 0 -8 -5 -15 -10 -15 -6 0 -13 7 -16 15 -9 21 -36 19 -57 -5 -10
-12 -22 -18 -27 -15 -6 3 -15 3 -22 -1 -7 -5 1 -17 23 -36 19 -17 26 -27 16
-24 -12 4 -17 2 -14 -6 2 -7 11 -13 20 -13 9 0 26 -10 37 -23 20 -21 40 -22
40 -1 0 6 -5 7 -12 3 -7 -5 -8 -3 -3 5 4 8 -5 24 -24 43 -33 32 -33 49 -1 41
11 -3 18 -8 16 -12 -2 -3 2 -15 10 -26 13 -18 20 -10 15 18 -2 11 25 37 32 31
3 -3 3 -12 0 -20 -7 -19 15 -44 32 -38 21 9 38 -5 26 -20 -6 -7 -9 -15 -6 -18
3 -3 -2 -11 -11 -19 -13 -11 -15 -11 -12 2 1 7 -2 15 -7 16 -13 3 -6 -40 9
-49 17 -12 -14 -29 -38 -22 -21 7 -32 15 -71 52 -28 26 -31 27 -38 8 -4 -11
-1 -13 10 -9 12 5 14 1 9 -15 -6 -16 -4 -20 6 -17 8 3 23 -3 33 -15 10 -11 29
-20 42 -20 14 0 23 -6 23 -15 0 -20 8 -19 47 8 26 17 32 27 28 45 -6 24 4 29
23 10 9 -9 12 -7 13 13 1 21 2 21 9 -6 l7 -30 10 24 10 25 7 -28 c4 -15 4 -31
1 -36 -10 -16 2 -11 21 7 16 16 16 16 10 -5 -5 -16 -3 -22 7 -22 22 0 30 70
10 92 -15 16 -15 23 0 80 14 53 23 148 18 196 -2 21 -21 3 -21 -19 0 -11 -4
-18 -9 -15 -5 4 -6 18 -2 34 6 20 13 26 29 24 18 -3 22 2 22 22 0 14 5 26 11
26 11 0 10 -9 -4 -90 -2 -14 -2 -17 0 -8 2 9 15 24 29 32 27 18 32 36 9 36 -8
0 -15 5 -15 10 0 7 6 7 19 0 11 -5 29 -10 40 -10 12 0 21 -5 21 -11 0 -5 5 -7
11 -4 6 5 4 12 -8 20 -17 13 -17 14 2 9 14 -3 33 8 62 35 23 21 39 42 36 45
-3 3 3 18 13 33 10 15 17 40 16 55 -1 15 2 29 8 33 5 3 15 15 21 27 8 15 8 19
0 14 -7 -5 -19 9 -31 36 -15 34 -20 39 -26 25z m-444 -471 c0 -11 -19 -15 -25
-6 -3 5 1 10 9 10 9 0 16 -2 16 -4z"/>
<path d="M6750 4700 c0 -5 5 -10 10 -10 6 0 10 5 10 10 0 6 -4 10 -10 10 -5 0
-10 -4 -10 -10z"/>
<path d="M6755 4580 c3 -5 8 -10 11 -10 2 0 4 5 4 10 0 6 -5 10 -11 10 -5 0
-7 -4 -4 -10z"/>
<path d="M4394 4540 c1 -9 12 -16 26 -17 21 -1 21 -1 3 3 -12 3 -24 11 -26 17
-2 7 -3 5 -3 -3z"/>
<path d="M6670 4526 c0 -8 -7 -22 -16 -30 -14 -15 -14 -16 2 -16 24 0 54 29
47 46 -7 18 -33 18 -33 0z"/>
<path d="M6608 4503 c7 -3 16 -2 19 1 4 3 -2 6 -13 5 -11 0 -14 -3 -6 -6z"/>
<path d="M6631 4454 c0 -11 3 -14 6 -6 3 7 2 16 -1 19 -3 4 -6 -2 -5 -13z"/>
<path d="M3760 4430 c14 -10 27 -17 29 -15 8 8 -22 35 -38 35 -12 0 -10 -5 9
-20z"/>
<path d="M6860 4433 c0 -5 8 -17 17 -28 14 -18 15 -18 9 -2 -3 10 -6 23 -6 28
0 5 -4 9 -10 9 -5 0 -10 -3 -10 -7z"/>
<path d="M3730 4420 c0 -5 5 -10 10 -10 6 0 10 5 10 10 0 6 -4 10 -10 10 -5 0
-10 -4 -10 -10z"/>
<path d="M5916 4413 c-11 -11 -6 -23 9 -23 8 0 15 4 15 9 0 13 -16 22 -24 14z"/>
<path d="M6936 4401 c-8 -12 3 -120 14 -141 12 -23 33 -29 84 -26 31 2 41 7
48 26 7 20 5 28 -17 43 -14 10 -23 22 -21 26 3 4 -10 13 -29 20 -19 6 -37 20
-40 31 -6 20 -31 34 -39 21z"/>
<path d="M3822 4256 c7 -8 15 -12 17 -11 5 6 -10 25 -20 25 -5 0 -4 -6 3 -14z"/>
<path d="M4530 4232 c0 -21 -5 -43 -10 -48 -7 -7 -7 -19 -1 -35 9 -23 10 -23
10 9 1 47 19 39 27 -13 5 -36 10 -45 26 -45 19 0 19 0 0 28 -11 15 -22 52 -25
82 -4 30 -6 56 -7 58 0 1 -4 2 -10 2 -5 0 -10 -17 -10 -38z"/>
<path d="M3911 4234 c0 -11 3 -14 6 -6 3 7 2 16 -1 19 -3 4 -6 -2 -5 -13z"/>
<path d="M2331 4227 c-1 -10 3 -37 8 -60 6 -23 12 -55 16 -70 3 -15 10 -25 15
-22 7 4 6 13 0 25 -5 10 -10 29 -11 42 -1 30 -27 108 -28 85z"/>
<path d="M3850 4229 c0 -5 5 -7 10 -4 6 3 10 8 10 11 0 2 -4 4 -10 4 -5 0 -10
-5 -10 -11z"/>
<path d="M3930 4218 c-8 -13 -18 -32 -22 -43 -4 -15 -6 -12 -7 13 -1 41 -21
33 -21 -9 0 -24 4 -29 25 -29 20 0 25 5 25 24 0 13 5 26 11 28 6 2 10 12 8 21
-4 15 -6 15 -19 -5z"/>
<path d="M3762 4208 c-7 -7 -12 -20 -12 -30 0 -10 -12 -25 -27 -35 -16 -10
-47 -36 -70 -58 -34 -32 -39 -42 -30 -54 9 -11 9 -15 0 -18 -15 -5 -18 -53 -4
-53 5 0 19 16 31 35 12 19 25 35 30 35 12 0 33 -57 25 -72 -3 -7 5 0 18 16 25
29 26 56 1 56 -7 0 -24 11 -38 23 l-26 24 23 22 c26 24 45 17 23 -8 -12 -14
-12 -18 1 -30 12 -11 14 -10 11 5 -2 14 3 19 24 20 14 1 25 -4 24 -10 -1 -6 2
-1 8 11 5 12 20 27 33 34 12 7 23 19 23 27 0 12 -3 12 -15 2 -15 -13 -39 -5
-30 11 4 5 2 9 -4 9 -5 0 -15 -8 -21 -17 -9 -15 -10 -14 -4 7 3 14 11 31 17
38 13 17 4 25 -11 10z m-2 -98 c0 -5 -4 -10 -10 -10 -5 0 -10 5 -10 10 0 6 5
10 10 10 6 0 10 -4 10 -10z"/>
<path d="M3980 4201 c0 -10 -8 -22 -17 -25 -15 -6 -15 -8 -3 -17 12 -7 11 -10
-7 -15 -27 -8 -29 -17 -6 -39 14 -14 14 -20 4 -37 -9 -14 -9 -23 -3 -27 6 -3
10 -13 10 -21 -2 -38 3 -50 22 -50 11 0 20 4 20 8 0 4 15 8 34 9 19 1 42 6 53
12 14 9 11 9 -17 5 -34 -6 -34 -6 -17 12 10 10 25 19 34 19 13 0 17 11 18 55
1 44 -3 61 -22 87 -14 17 -30 30 -37 27 -7 -3 -25 0 -39 5 -23 9 -27 8 -27 -8z
m10 -145 c0 -3 -4 -8 -10 -11 -5 -3 -10 -1 -10 4 0 6 5 11 10 11 6 0 10 -2 10
-4z"/>
<path d="M3661 4176 c-9 -11 -7 -15 8 -19 19 -5 41 9 41 25 0 13 -37 9 -49 -6z"/>
<path d="M4672 4120 c12 -22 25 -40 30 -40 12 0 10 7 -14 45 -31 48 -42 44
-16 -5z"/>
<path d="M4638 4105 c2 -14 8 -25 12 -25 10 0 1 38 -10 45 -4 2 -5 -7 -2 -20z"/>
<path d="M4496 4113 c-12 -12 -6 -33 9 -33 8 0 15 6 15 14 0 17 -14 28 -24 19z"/>
<path d="M4530 4094 c-12 -32 -13 -49 -1 -72 5 -9 12 -25 15 -35 5 -16 7 -16
26 3 24 24 28 90 5 90 -8 0 -15 -7 -15 -16 0 -8 -4 -12 -10 -9 -5 3 -7 19 -3
35 7 37 -4 39 -17 4z"/>
<path d="M4827 4075 c-16 -24 -34 -43 -40 -42 -6 1 -13 -8 -15 -20 -2 -16 -9
-22 -25 -20 -18 2 -22 -3 -22 -27 -1 -27 2 -25 62 40 34 38 63 73 63 78 0 5 8
15 18 22 14 11 14 13 2 14 -8 0 -28 -20 -43 -45z m-77 -95 c0 -5 -4 -10 -10
-10 -5 0 -10 5 -10 10 0 6 5 10 10 10 6 0 10 -4 10 -10z"/>
<path d="M3515 4086 c-31 -11 -55 -29 -55 -41 0 -9 -27 -35 -36 -35 -11 0 -33
-34 -34 -52 0 -10 -3 -18 -8 -18 -12 0 -72 -58 -72 -70 0 -16 50 -1 93 28 34
23 36 26 22 42 -16 18 -10 52 9 48 13 -3 86 42 105 66 10 12 10 16 1 16 -10 0
-10 3 0 15 7 8 11 15 9 14 -2 -1 -17 -6 -34 -13z m5 -37 c0 -5 -6 -9 -14 -9
-8 0 -16 -6 -19 -12 -2 -7 -8 -10 -12 -6 -10 10 25 49 36 42 5 -3 9 -9 9 -15z
m-157 -154 c-3 -9 -8 -14 -10 -11 -3 3 -2 9 2 15 9 16 15 13 8 -4z"/>
<path d="M3426 4068 c-10 -12 -15 -27 -11 -36 6 -14 8 -15 13 -2 3 8 14 22 25
30 17 14 18 18 5 22 -8 4 -23 -3 -32 -14z"/>
<path d="M4730 4070 c0 -11 6 -20 13 -20 7 0 13 9 13 20 0 11 -6 20 -13 20 -7
0 -13 -9 -13 -20z"/>
<path d="M2840 4070 c0 -4 11 -11 25 -14 14 -4 25 -11 25 -16 0 -6 5 -10 12
-10 17 0 -20 37 -43 43 -10 3 -19 2 -19 -3z"/>
<path d="M3534 4027 c-27 -23 -27 -24 -6 -29 13 -4 20 -2 19 6 -1 6 6 10 15 8
12 -2 16 4 15 18 -2 26 -10 25 -43 -3z"/>
<path d="M3750 4040 c0 -5 5 -10 11 -10 5 0 7 5 4 10 -3 6 -8 10 -11 10 -2 0
-4 -4 -4 -10z"/>
<path d="M3800 4040 c-8 -5 -12 -12 -9 -15 4 -3 12 1 19 10 14 17 11 19 -10 5z"/>
<path d="M4640 4030 c0 -17 7 -20 50 -20 28 0 50 3 50 6 0 16 -33 34 -64 34
-29 0 -36 -4 -36 -20z"/>
<path d="M3833 4023 c-4 -10 -11 -22 -17 -26 -7 -6 -6 -7 3 -5 13 4 37 48 25
48 -2 0 -8 -8 -11 -17z"/>
<path d="M3263 3964 c-76 -52 -85 -60 -61 -51 11 4 15 2 12 -7 -3 -8 -15 -11
-32 -8 -24 4 -25 3 -11 -9 20 -17 42 -79 28 -79 -5 0 -9 6 -9 13 0 8 -4 7 -10
-3 -5 -8 -10 -22 -10 -30 0 -13 1 -13 11 0 8 12 10 9 6 -12 -2 -16 0 -28 4
-28 5 0 5 -7 2 -17 -4 -11 -3 -14 6 -9 6 4 11 13 10 19 -4 30 2 46 14 41 8 -3
20 2 27 11 7 8 18 15 24 15 18 0 40 41 26 50 -12 8 6 60 22 60 4 0 8 5 8 11 0
6 -9 8 -20 4 -11 -4 -20 -2 -20 4 0 6 7 11 16 11 8 0 12 5 9 10 -3 6 -2 10 2
10 5 0 14 9 21 20 19 31 -1 24 -75 -26z m-20 -134 c-3 -11 -9 -20 -14 -20 -11
0 -11 3 -3 24 9 23 23 20 17 -4z"/>
<path d="M7035 4000 c-3 -5 -1 -10 4 -10 6 0 11 5 11 10 0 6 -2 10 -4 10 -3 0
-8 -4 -11 -10z"/>
<path d="M4593 3993 c-14 -5 -18 -33 -5 -33 4 0 13 9 20 20 12 20 8 23 -15 13z"/>
<path d="M4656 3963 c9 -52 14 -54 14 -5 0 23 -5 42 -10 42 -7 0 -8 -14 -4
-37z"/>
<path d="M4695 3990 c3 -5 8 -10 11 -10 2 0 4 5 4 10 0 6 -5 10 -11 10 -5 0
-7 -4 -4 -10z"/>
<path d="M3521 3983 c-1 -6 -8 -19 -17 -27 -8 -9 -14 -21 -12 -27 2 -7 12 0
22 15 9 15 15 33 12 39 -3 9 -5 9 -5 0z"/>
<path d="M4205 3980 c-3 -5 -1 -10 4 -10 6 0 11 5 11 10 0 6 -2 10 -4 10 -3 0
-8 -4 -11 -10z"/>
<path d="M3440 3890 c0 -5 5 -10 10 -10 6 0 10 5 10 10 0 6 -4 10 -10 10 -5 0
-10 -4 -10 -10z"/>
<path d="M4320 3880 c0 -5 -10 -10 -23 -10 -13 0 -28 -5 -35 -12 -7 -7 -31
-11 -54 -10 -32 2 -39 0 -28 -8 12 -7 7 -10 -18 -10 -28 0 -32 -3 -27 -19 4
-13 0 -23 -12 -30 -17 -9 -17 -10 0 -16 21 -9 23 -25 2 -25 -8 0 -15 5 -15 10
0 6 -6 10 -14 10 -7 0 -20 10 -28 21 -9 14 -25 22 -46 23 -18 0 -32 4 -32 9 0
4 -4 7 -10 7 -5 0 -10 -7 -10 -15 0 -20 -20 -19 -37 3 -13 16 -14 16 -8 -4 3
-13 -1 -26 -10 -34 -11 -9 -15 -9 -15 0 0 7 -12 11 -32 9 -18 -1 -44 1 -57 5
-13 5 -27 4 -33 -2 -7 -7 -19 -7 -35 -1 -19 7 -33 5 -57 -10 -32 -20 -32 -20
-45 1 -9 14 -16 17 -23 10 -6 -6 -18 -8 -27 -6 -9 3 -5 -1 8 -9 15 -9 20 -17
12 -21 -6 -4 -11 -3 -11 2 0 16 -48 21 -54 6 -3 -8 -13 -14 -23 -14 -9 0 -27
-12 -39 -27 l-22 -28 -60 21 c-57 21 -59 21 -70 3 -7 -10 -12 -25 -12 -32 0
-7 -13 -21 -30 -30 -18 -11 -27 -23 -23 -32 3 -9 -1 -15 -8 -15 -9 0 -10 -3
-3 -8 6 -4 13 -15 17 -25 8 -22 37 -34 46 -19 4 6 17 13 29 15 12 2 25 6 28
10 4 4 23 7 41 7 20 0 32 4 28 10 -3 6 0 10 7 10 7 0 19 -9 26 -20 7 -11 19
-20 28 -20 9 0 18 9 21 20 3 13 14 20 28 20 13 0 30 6 38 14 37 37 145 41 177
6 8 -9 24 -17 35 -18 31 -2 58 -8 83 -19 13 -5 38 -8 55 -7 19 1 36 -4 43 -14
11 -16 14 -15 31 0 14 13 22 15 30 7 8 -8 20 -6 42 5 24 13 29 13 25 3 -4 -11
9 -13 63 -11 37 2 91 4 118 4 l50 0 -40 35 -39 35 37 -2 c36 -1 66 -18 33 -18
-9 0 -16 -4 -16 -10 0 -5 4 -10 9 -10 5 0 17 -7 26 -16 20 -20 33 -11 15 11
-10 13 -9 15 8 15 23 0 54 30 31 30 -9 1 -8 4 4 11 9 6 14 15 11 21 -4 6 -1 9
7 6 8 -3 13 -16 11 -32 -3 -26 -2 -27 20 -12 33 22 93 96 93 115 0 9 7 15 15
14 16 -3 73 70 63 81 -13 12 -33 6 -33 -11 0 -10 -7 -27 -15 -37 -13 -18 -15
-18 -15 -3 0 15 -3 16 -21 6 -15 -7 -20 -18 -17 -34 4 -21 3 -22 -18 -13 -12
6 -25 20 -29 32 -4 14 -8 17 -12 8 -3 -8 0 -19 6 -25 7 -7 4 -16 -12 -29 -22
-19 -22 -19 -27 4 -4 13 -3 45 2 72 5 32 4 54 -4 63 -12 15 -38 17 -38 3 0 -5
-9 -10 -20 -10 -11 0 -20 5 -20 10 0 6 -9 10 -20 10 -11 0 -20 -4 -20 -10z
m110 -25 c0 -8 -4 -15 -10 -15 -5 0 -7 -6 -4 -14 3 -8 1 -23 -5 -33 -9 -16
-10 -15 -11 7 0 35 11 70 21 70 5 0 9 -7 9 -15z m-60 -55 c0 -22 -4 -40 -10
-40 -5 0 -10 18 -10 40 0 22 5 40 10 40 6 0 10 -18 10 -40z m144 -66 c5 -14 4
-15 -9 -4 -17 14 -19 20 -6 20 5 0 12 -7 15 -16z m-344 -4 c0 -5 -5 -10 -11
-10 -5 0 -7 5 -4 10 3 6 8 10 11 10 2 0 4 -4 4 -10z m330 -35 c0 -5 -5 -3 -10
5 -5 8 -10 20 -10 25 0 6 5 3 10 -5 5 -8 10 -19 10 -25z m-840 21 c0 -11 -19
-15 -25 -6 -3 5 1 10 9 10 9 0 16 -2 16 -4z m543 -18 c3 -10 7 -10 20 0 14 12
16 11 14 -6 -1 -17 -6 -19 -37 -15 -41 7 -44 8 -35 22 9 15 32 14 38 -1z m-94
-12 c-2 -2 -20 -6 -39 -10 -25 -4 -31 -3 -20 4 14 9 69 15 59 6z m-195 -61 c8
-8 21 -15 28 -16 7 0 4 -4 -7 -8 -25 -10 -43 -5 -75 19 l-25 20 32 0 c17 0 38
-7 47 -15z m336 -19 c0 -2 -9 -6 -20 -9 -11 -3 -18 -1 -14 4 5 9 34 13 34 5z"/>
<path d="M3390 3848 c-12 -22 -12 -22 6 -6 10 10 15 20 12 24 -4 3 -12 -5 -18
-18z"/>
<path d="M4075 3820 c-6 -10 4 -40 15 -40 4 0 10 9 13 19 5 20 -18 38 -28 21z"/>
<path d="M3280 3738 c0 -19 2 -20 10 -8 13 19 13 30 0 30 -5 0 -10 -10 -10
-22z"/>
<path d="M3307 3724 c-4 -4 -7 -14 -7 -23 0 -11 3 -12 11 -4 6 6 10 16 7 23
-2 6 -7 8 -11 4z"/>
<path d="M2457 3620 c3 -11 7 -20 9 -20 2 0 4 9 4 20 0 11 -4 20 -9 20 -5 0
-7 -9 -4 -20z"/>
<path d="M4418 3603 c7 -3 16 -2 19 1 4 3 -2 6 -13 5 -11 0 -14 -3 -6 -6z"/>
<path d="M2800 3540 c0 -5 5 -10 10 -10 6 0 10 5 10 10 0 6 -4 10 -10 10 -5 0
-10 -4 -10 -10z"/>
<path d="M2500 3531 c0 -6 4 -13 10 -16 6 -3 7 1 4 9 -7 18 -14 21 -14 7z"/>
<path d="M2740 3520 c0 -11 5 -20 10 -20 6 0 10 9 10 20 0 11 -4 20 -10 20 -5
0 -10 -9 -10 -20z"/>
<path d="M2801 3483 c-1 -18 4 -33 9 -33 12 0 12 17 0 45 -7 17 -9 15 -9 -12z"/>
<path d="M2708 3445 c2 -14 6 -25 8 -25 2 0 4 11 4 25 0 14 -4 25 -9 25 -4 0
-6 -11 -3 -25z"/>
<path d="M2796 3408 c8 -49 12 -58 24 -58 14 0 13 30 -2 63 -18 37 -29 34 -22
-5z"/>
<path d="M2720 3378 c0 -20 6 -39 13 -41 9 -4 9 -8 -1 -15 -12 -8 -11 -15 2
-41 21 -39 33 -40 33 -1 0 17 -4 30 -8 30 -4 0 -5 9 -2 20 3 12 0 20 -7 20 -7
0 -10 6 -7 13 3 7 -1 21 -9 32 -13 17 -14 16 -14 -17z"/>
<path d="M2630 3380 c0 -5 5 -10 10 -10 6 0 10 5 10 10 0 6 -4 10 -10 10 -5 0
-10 -4 -10 -10z"/>
<path d="M3835 3370 c3 -5 8 -10 11 -10 2 0 4 5 4 10 0 6 -5 10 -11 10 -5 0
-7 -4 -4 -10z"/>
<path d="M2887 3363 c-10 -9 -9 -23 1 -23 5 0 9 7 9 15 0 17 -1 18 -10 8z"/>
<path d="M2640 3346 c0 -9 5 -16 10 -16 6 0 10 4 10 9 0 6 -4 13 -10 16 -5 3
-10 -1 -10 -9z"/>
<path d="M2600 3320 c0 -5 5 -10 10 -10 6 0 10 5 10 10 0 6 -4 10 -10 10 -5 0
-10 -4 -10 -10z"/>
<path d="M2870 3299 c0 -5 5 -7 10 -4 6 3 10 8 10 11 0 2 -4 4 -10 4 -5 0 -10
-5 -10 -11z"/>
<path d="M2550 3288 c0 -9 5 -20 10 -23 13 -8 13 5 0 25 -8 13 -10 13 -10 -2z"/>
<path d="M2590 3271 c0 -5 5 -13 10 -16 6 -3 10 -2 10 4 0 5 -4 13 -10 16 -5
3 -10 2 -10 -4z"/>
<path d="M2910 3226 c0 -14 -4 -26 -10 -26 -5 0 -10 5 -10 10 0 6 -4 10 -10
10 -5 0 -7 -7 -4 -15 8 -20 28 -19 49 1 17 18 16 35 -3 42 -7 2 -12 -7 -12
-22z"/>
<path d="M2975 3239 c-10 -15 3 -25 16 -12 7 7 7 13 1 17 -6 3 -14 1 -17 -5z"/>
<path d="M2580 3204 c0 -14 4 -23 10 -19 6 3 10 15 10 26 0 10 -4 19 -10 19
-5 0 -10 -12 -10 -26z"/>
<path d="M2685 3220 c3 -5 8 -10 11 -10 2 0 4 5 4 10 0 6 -5 10 -11 10 -5 0
-7 -4 -4 -10z"/>
<path d="M2760 3215 c0 -16 34 -38 44 -28 7 7 -23 43 -36 43 -4 0 -8 -7 -8
-15z"/>
<path d="M5991 3164 c0 -11 3 -14 6 -6 3 7 2 16 -1 19 -3 4 -6 -2 -5 -13z"/>
<path d="M2590 3164 c0 -3 6 -20 14 -37 8 -18 20 -49 26 -71 7 -23 20 -41 31
-43 11 -3 19 -9 19 -14 0 -5 8 -9 18 -9 16 1 16 1 -1 11 -9 6 -15 15 -11 20 3
6 -3 17 -15 25 -12 8 -21 22 -21 30 0 9 -7 22 -15 30 -9 10 -13 24 -9 40 5 20
2 24 -15 24 -12 0 -21 -3 -21 -6z"/>
<path d="M2870 3159 c0 -5 5 -7 10 -4 6 3 10 8 10 11 0 2 -4 4 -10 4 -5 0 -10
-5 -10 -11z"/>
<path d="M2920 3141 c0 -11 19 -25 39 -28 8 -1 18 -8 22 -15 6 -9 8 -6 7 9 -1
11 -7 19 -14 16 -6 -2 -14 3 -17 11 -7 17 -37 22 -37 7z"/>
<path d="M2863 3118 c-11 -15 -11 -68 0 -85 4 -6 3 -14 -3 -18 -5 -3 -10 -15
-10 -26 0 -18 -27 -35 -85 -54 -19 -6 -19 -7 3 -25 13 -11 21 -24 17 -30 -8
-13 -25 -13 -25 1 0 14 -27 40 -39 37 -5 -2 -17 6 -25 17 -16 19 -16 19 -9
-10 3 -16 16 -50 28 -75 12 -25 29 -60 36 -77 8 -18 17 -33 21 -33 5 0 8 -9 8
-20 0 -11 4 -20 8 -20 14 0 63 56 55 64 -4 4 0 4 8 1 22 -8 106 84 87 97 -10
7 -9 8 4 6 16 -3 208 175 208 194 0 12 -10 10 -26 -7 -9 -8 -26 -15 -38 -15
-12 0 -26 -3 -30 -7 -4 -4 -19 -9 -34 -11 -15 -2 -31 -7 -36 -13 -6 -5 -25 -9
-42 -9 -18 0 -36 -4 -39 -10 -3 -5 -13 -10 -21 -10 -8 0 -14 5 -14 10 0 6 8
10 18 10 23 0 43 40 35 69 -3 12 -12 21 -20 21 -11 0 -11 4 -3 20 9 17 8 20
-8 20 -11 0 -24 -6 -29 -12z m40 -65 c3 -5 -1 -13 -8 -20 -10 -10 -14 -9 -18
1 -8 21 15 37 26 19z m187 -27 c0 -3 -4 -8 -10 -11 -5 -3 -10 -1 -10 4 0 6 5
11 10 11 6 0 10 -2 10 -4z m-48 -58 c-7 -7 -12 -8 -12 -2 0 6 3 14 7 17 3 4 9
5 12 2 2 -3 -1 -11 -7 -17z m-232 -118 c0 -5 -4 -10 -10 -10 -5 0 -10 5 -10
10 0 6 5 10 10 10 6 0 10 -4 10 -10z"/>
<path d="M2810 3109 c0 -5 5 -7 10 -4 6 3 10 8 10 11 0 2 -4 4 -10 4 -5 0 -10
-5 -10 -11z"/>
<path d="M2735 3050 c-3 -5 -1 -10 4 -10 6 0 11 5 11 10 0 6 -2 10 -4 10 -3 0
-8 -4 -11 -10z"/>
<path d="M2810 3026 c0 -9 30 -14 35 -6 4 6 -3 10 -14 10 -12 0 -21 -2 -21 -4z"/>
<path d="M2730 2990 c0 -5 5 -10 10 -10 6 0 10 5 10 10 0 6 -4 10 -10 10 -5 0
-10 -4 -10 -10z"/>
<path d="M2766 2971 c-4 -7 -5 -15 -2 -18 9 -9 19 4 14 18 -4 11 -6 11 -12 0z"/>
<path d="M6071 2924 c0 -11 3 -14 6 -6 3 7 2 16 -1 19 -3 4 -6 -2 -5 -13z"/>
<path d="M6908 2933 c7 -3 16 -2 19 1 4 3 -2 6 -13 5 -11 0 -14 -3 -6 -6z"/>
<path d="M6970 2920 c-8 -5 -10 -10 -5 -10 6 0 17 5 25 10 8 5 11 10 5 10 -5
0 -17 -5 -25 -10z"/>
<path d="M6910 2890 c-13 -11 -28 -20 -33 -20 -6 0 -8 -3 -5 -6 7 -7 64 21 73
36 11 17 -11 11 -35 -10z"/>
<path d="M6565 2720 c-3 -5 -2 -10 4 -10 5 0 13 5 16 10 3 6 2 10 -4 10 -5 0
-13 -4 -16 -10z"/>
<path d="M6190 2571 c0 -6 4 -13 10 -16 6 -3 7 1 4 9 -7 18 -14 21 -14 7z"/>
<path d="M7869 2364 c-12 -14 -11 -16 5 -13 11 2 21 10 24 17 5 17 -13 15 -29
-4z"/>
<path d="M7826 2334 c-17 -12 -17 -14 -3 -20 9 -3 24 -4 34 -1 13 3 11 5 -7 6
-20 1 -22 3 -10 11 8 5 12 11 10 14 -3 2 -14 -2 -24 -10z"/>
<path d="M7732 2276 c-31 -22 -32 -24 -11 -29 19 -5 20 -8 9 -22 -15 -18 -16
-17 31 -43 l37 -20 -7 26 c-7 26 -31 43 -31 22 0 -6 -5 -8 -10 -5 -8 5 -8 11
0 20 6 8 10 20 8 29 -2 8 6 22 17 30 34 26 -6 18 -43 -8z"/>
<path d="M7833 2243 c-1 -23 7 -42 23 -60 13 -14 24 -34 24 -44 0 -10 5 -21
10 -24 6 -3 10 -17 10 -30 0 -13 5 -27 11 -31 6 -3 9 -17 6 -30 -2 -13 -1 -24
3 -24 13 0 61 -148 64 -193 1 -10 6 -21 12 -25 10 -6 20 -41 40 -139 2 -13 11
-23 18 -23 14 0 30 29 21 38 -3 3 -5 0 -5 -6 0 -7 -4 -12 -10 -12 -5 0 -9 8
-8 18 1 9 -4 36 -11 60 -8 23 -11 45 -8 48 4 4 35 1 69 -5 35 -7 74 -15 88
-17 l25 -5 -23 16 c-12 9 -26 14 -30 11 -5 -3 -21 2 -36 9 -16 8 -31 13 -35
11 -3 -2 -17 2 -31 10 l-25 13 27 1 c21 0 25 4 21 20 -3 11 -12 20 -19 20 -8
0 -14 5 -14 10 0 6 7 10 15 10 8 0 15 5 15 11 0 5 -10 9 -22 7 -11 -2 -23 3
-25 10 -3 7 5 12 21 12 13 0 27 4 30 9 3 4 -6 6 -19 3 -23 -4 -25 -2 -25 37 0
22 -4 41 -10 41 -5 0 -10 11 -10 25 0 14 -4 25 -9 25 -5 0 -11 9 -14 21 -3 11
-15 23 -26 26 -31 8 -26 28 6 27 77 -4 161 -39 169 -71 6 -24 47 -33 59 -13
10 16 35 12 35 -6 0 -14 3 -14 15 -4 11 9 15 9 15 1 0 -7 13 -17 29 -22 22 -8
28 -15 24 -27 -3 -9 6 -3 21 13 22 23 29 27 34 15 3 -8 20 -29 38 -46 l33 -32
-28 -4 c-21 -3 -28 -1 -24 9 3 7 -2 13 -11 13 -10 0 -16 -8 -15 -22 0 -13 -7
-48 -15 -78 -9 -30 -16 -62 -16 -72 0 -23 17 -23 23 0 4 14 5 13 6 -4 1 -29
-64 -51 -108 -36 -19 7 -31 7 -31 1 0 -5 9 -9 19 -9 11 0 23 -4 26 -10 3 -5
13 -10 21 -10 20 0 174 73 174 83 0 13 -20 7 -50 -15 -32 -23 -51 -20 -25 5
17 18 20 37 5 37 -5 0 -10 -4 -10 -10 0 -5 -4 -10 -10 -10 -5 0 -10 10 -10 22
0 33 22 88 36 88 6 0 27 3 45 6 l34 5 -25 -15 c-23 -14 -24 -15 -6 -22 14 -5
24 -1 38 16 15 18 21 20 33 10 8 -6 19 -9 25 -5 5 3 10 1 10 -4 0 -6 11 -11
25 -11 27 0 32 -9 13 -28 -19 -19 -1 -25 24 -8 12 9 32 16 45 16 43 0 32 19
-26 47 -33 15 -60 33 -60 40 -1 6 -9 11 -18 11 -10 0 -34 7 -53 15 -19 9 -28
17 -20 17 12 1 -93 60 -106 60 -2 0 -4 -7 -4 -15 0 -8 -8 -15 -18 -15 -26 0
-154 68 -173 92 -9 12 -21 18 -27 14 -6 -3 -16 0 -24 7 -7 8 -31 22 -53 32
-22 9 -62 28 -90 41 -27 14 -59 26 -71 28 -11 2 -36 11 -55 19 l-35 14 -1 -34z
m357 -183 c12 -8 11 -10 -7 -10 -13 0 -23 5 -23 10 0 13 11 13 30 0z"/>
<path d="M8025 2250 c-3 -5 1 -10 9 -10 9 0 16 5 16 10 0 6 -4 10 -9 10 -6 0
-13 -4 -16 -10z"/>
<path d="M8065 2239 c-4 -5 3 -9 14 -9 11 0 23 -4 26 -10 3 -5 13 -10 21 -10
23 0 8 17 -26 28 -18 7 -32 7 -35 1z"/>
<path d="M7655 2220 c-16 -11 -25 -20 -20 -20 10 0 64 39 55 40 -3 0 -18 -9
-35 -20z"/>
<path d="M8260 2160 c20 -13 33 -13 25 0 -3 6 -14 10 -23 10 -15 0 -15 -2 -2
-10z"/>
<path d="M7800 2130 c0 -5 5 -10 11 -10 5 0 7 5 4 10 -3 6 -8 10 -11 10 -2 0
-4 -4 -4 -10z"/>
<path d="M8290 2101 c0 -5 8 -11 18 -14 9 -2 26 -8 37 -12 30 -12 6 9 -27 23
-16 6 -28 8 -28 3z"/>
<path d="M7444 2079 c-19 -21 -19 -21 9 -8 15 7 27 16 27 21 0 14 -16 9 -36
-13z"/>
<path d="M8045 2080 c-3 -5 1 -10 9 -10 8 0 18 5 21 10 3 6 -1 10 -9 10 -8 0
-18 -4 -21 -10z"/>
<path d="M8477 2071 c4 -18 71 -57 80 -47 7 7 -25 38 -55 53 -31 17 -31 17
-25 -6z"/>
<path d="M7370 2032 c-19 -15 -52 -36 -72 -47 -21 -10 -36 -20 -35 -21 1 -1
21 -4 45 -8 27 -4 42 -2 42 4 0 6 -7 10 -16 8 -10 -2 -19 3 -21 10 -3 6 2 12
11 12 9 0 24 8 34 18 9 9 29 25 42 34 14 9 20 17 15 17 -6 1 -26 -11 -45 -27z"/>
<path d="M8094 2039 c-8 -14 11 -33 25 -25 6 4 11 11 11 16 0 13 -29 20 -36 9z"/>
<path d="M8077 1989 c4 -13 8 -18 11 -10 2 7 -1 18 -6 23 -8 8 -9 4 -5 -13z"/>
<path d="M8168 2003 c6 -2 18 -2 25 0 6 3 1 5 -13 5 -14 0 -19 -2 -12 -5z"/>
<path d="M8231 2001 c-17 -11 -5 -32 14 -25 18 7 28 34 12 34 -7 0 -18 -4 -26
-9z"/>
<path d="M7475 1981 c-3 -5 -1 -12 5 -16 5 -3 10 1 10 9 0 18 -6 21 -15 7z"/>
<path d="M8800 1975 c0 -8 4 -15 9 -15 5 0 11 7 15 15 3 9 0 15 -9 15 -8 0
-15 -7 -15 -15z"/>
<path d="M8125 1970 c3 -5 8 -10 11 -10 2 0 4 5 4 10 0 6 -5 10 -11 10 -5 0
-7 -4 -4 -10z"/>
<path d="M8680 1940 c0 -16 4 -30 8 -30 5 0 7 14 4 30 -2 17 -6 30 -8 30 -2 0
-4 -13 -4 -30z"/>
<path d="M8823 1958 c-13 -6 -23 -15 -23 -20 0 -5 14 -2 30 7 45 23 38 35 -7
13z"/>
<path d="M7368 1943 c6 -2 18 -2 25 0 6 3 1 5 -13 5 -14 0 -19 -2 -12 -5z"/>
<path d="M8337 1943 c-10 -9 -9 -33 1 -33 4 0 8 9 9 20 2 21 0 24 -10 13z"/>
<path d="M7446 1931 c-3 -5 4 -11 17 -15 40 -11 52 -6 23 9 -33 18 -33 18 -40
6z"/>
<path d="M8746 1924 c-5 -12 -2 -15 10 -10 8 3 20 6 25 6 5 0 9 5 9 10 0 16
-37 11 -44 -6z"/>
<path d="M9775 1926 c-54 -14 -112 -42 -133 -63 -7 -7 -17 -13 -21 -13 -9 0
-80 -95 -90 -123 -5 -12 -18 -43 -29 -67 -11 -25 -23 -57 -26 -72 -3 -16 -9
-40 -12 -55 -3 -16 -9 -37 -14 -48 -5 -11 -11 -36 -15 -55 -3 -19 -7 -46 -10
-60 -14 -83 -36 -245 -40 -305 -21 -263 -26 -486 -13 -570 5 -38 11 -88 13
-110 2 -22 9 -71 15 -110 6 -38 13 -87 15 -107 2 -21 9 -63 14 -94 6 -31 8
-60 5 -65 -3 -5 29 -9 71 -9 70 0 76 2 70 18 -4 9 -7 24 -6 32 1 8 1 24 0 35
-1 11 -2 32 -3 46 -1 19 -5 25 -16 21 -13 -5 -13 -3 -1 11 10 13 11 26 3 57
-5 22 -8 49 -5 60 3 11 0 20 -6 20 -6 0 -11 -8 -12 -17 0 -12 -2 -13 -6 -5 -3
7 0 19 6 26 8 10 7 21 -5 45 -9 19 -13 42 -10 57 4 13 1 34 -5 46 -9 17 -9 23
0 26 6 2 11 8 11 13 0 6 -5 7 -10 4 -7 -4 -9 2 -5 18 4 14 3 27 -2 30 -10 6
-9 100 1 116 4 6 2 20 -4 31 -8 15 -8 25 -1 34 7 8 7 24 2 44 -8 25 -7 30 6
25 13 -5 13 -2 -1 25 -20 38 -20 46 -1 38 19 -7 19 3 0 28 -17 22 -20 56 -6
56 5 0 12 -8 14 -17 3 -10 4 -6 4 10 -1 15 -4 27 -8 27 -4 0 -10 7 -13 16 -4
11 -2 15 8 11 11 -5 14 10 12 83 -1 49 2 86 6 84 11 -7 19 32 22 118 2 49 8
84 15 86 6 2 11 19 11 37 0 19 5 37 11 40 6 4 8 13 5 21 -3 7 0 16 5 20 6 3
19 26 29 50 23 53 65 74 136 67 39 -3 45 -2 32 7 -10 6 -35 27 -55 46 l-38 35
30 -7 c68 -16 199 -70 344 -142 85 -42 158 -78 163 -80 4 -2 8 68 8 156 0 154
-1 160 -22 175 -13 8 -41 31 -62 50 -22 19 -67 49 -101 66 -51 26 -76 32 -146
36 -53 3 -102 0 -134 -9z"/>
<path d="M7540 1900 c20 -13 40 -13 40 0 0 6 -12 10 -27 10 -22 0 -25 -2 -13
-10z"/>
<path d="M9540 1894 c-92 -15 -120 -23 -117 -33 1 -5 -2 -9 -8 -9 -5 0 -9 4
-7 9 2 10 -29 12 -53 3 -13 -6 -14 -9 -3 -16 9 -7 7 -8 -7 -2 -11 4 -27 7 -35
7 -161 -1 -309 -38 -302 -76 2 -11 -2 -15 -13 -11 -8 3 -15 1 -15 -6 0 -6 -12
-22 -27 -34 -33 -28 -76 -104 -66 -118 3 -6 2 -8 -4 -5 -5 3 -17 -10 -26 -29
-20 -40 -21 -48 -7 -39 6 3 10 -1 10 -10 0 -9 -5 -13 -10 -10 -14 8 -49 -77
-62 -147 -6 -32 -13 -56 -17 -54 -7 5 -12 -36 -13 -101 0 -24 -4 -40 -9 -38
-11 7 -21 -32 -14 -55 3 -10 2 -27 -3 -37 -6 -10 -12 -44 -15 -76 -3 -31 -8
-61 -11 -65 -2 -4 -7 -31 -10 -60 -4 -39 -3 -51 6 -46 6 4 5 -3 -4 -15 -15
-21 -13 -66 3 -77 5 -3 9 -10 9 -15 0 -6 -4 -7 -10 -4 -5 3 -10 1 -10 -5 0 -6
-4 -9 -10 -5 -10 6 -1 -25 47 -163 16 -46 32 -80 36 -76 4 4 7 -4 7 -17 0 -24
47 -179 57 -189 3 -3 4 7 1 21 -3 17 0 26 9 26 15 0 17 -21 3 -46 -7 -14 -2
-41 20 -102 16 -46 34 -85 40 -87 5 -2 7 -8 4 -13 -3 -6 0 -24 6 -40 17 -41
46 -35 43 8 -2 18 2 35 7 38 6 4 10 -9 10 -30 0 -20 4 -34 9 -31 5 4 11 0 14
-6 7 -21 15 -5 19 39 3 23 9 48 16 55 6 8 13 31 15 51 2 20 7 40 10 44 10 10
8 -14 -12 -109 l-17 -88 182 0 182 0 5 33 c2 17 0 43 -5 57 -6 14 -12 43 -13
65 -7 82 -17 150 -23 165 -3 8 -7 33 -9 55 -1 22 -5 65 -7 95 -15 176 -5 483
24 715 14 110 16 123 29 185 7 30 14 67 16 82 2 15 9 37 15 48 6 11 8 24 6 29
-3 5 1 22 9 37 8 16 15 37 15 46 0 9 5 20 10 23 6 3 10 15 10 26 0 24 65 143
93 173 12 11 36 33 54 47 38 31 35 32 -77 13z m-140 -65 c0 -14 -17 -10 -23 5
-4 10 -1 13 9 9 7 -3 14 -9 14 -14z m12 -54 c-2 -19 -6 -35 -8 -35 -2 0 -4 16
-4 35 0 19 4 35 8 35 4 0 6 -16 4 -35z m-26 -112 c-2 -10 -10 -50 -17 -90 -7
-39 -16 -70 -19 -68 -9 6 22 175 32 175 5 0 7 -8 4 -17z m-69 -135 c-3 -8 -6
-5 -6 6 -1 11 2 17 5 13 3 -3 4 -12 1 -19z m17 -95 c-4 -21 -8 -45 -9 -53 -1
-8 -5 -26 -8 -40 -3 -14 -14 -59 -23 -100 -9 -41 -19 -82 -22 -90 -3 -8 -7
-24 -8 -35 -14 -96 -28 -155 -35 -155 -5 0 -9 8 -9 18 0 10 -5 23 -11 29 -8 8
-8 19 0 40 7 17 10 19 7 7 -2 -12 0 -27 4 -34 11 -17 23 43 15 72 -5 18 -4 20
4 8 8 -12 11 -8 11 18 0 18 6 45 14 60 7 15 18 56 25 92 16 90 43 200 48 200
2 0 1 -17 -3 -37z m-543 -146 c-10 -9 -11 -8 -5 6 3 10 9 15 12 12 3 -3 0 -11
-7 -18z m245 -4 c-10 -10 -19 5 -10 18 6 11 8 11 12 0 2 -7 1 -15 -2 -18z
m111 1 c-3 -3 -12 -4 -19 -1 -8 3 -5 6 6 6 11 1 17 -2 13 -5z m103 -93 c0 -6
-4 -13 -10 -16 -5 -3 -10 1 -10 9 0 9 5 16 10 16 6 0 10 -4 10 -9z m-463 -68
c-3 -10 -5 -4 -5 12 0 17 2 24 5 18 2 -7 2 -21 0 -30z m-17 13 c0 -2 -7 -6
-15 -10 -8 -3 -15 -1 -15 4 0 6 7 10 15 10 8 0 15 -2 15 -4z m-13 -68 c-3 -8
-6 -5 -6 6 -1 11 2 17 5 13 3 -3 4 -12 1 -19z m30 -20 c-3 -8 -6 -5 -6 6 -1
11 2 17 5 13 3 -3 4 -12 1 -19z m420 -80 c-3 -8 -6 -5 -6 6 -1 11 2 17 5 13 3
-3 4 -12 1 -19z m-87 -48 c0 -22 -4 -40 -10 -40 -5 0 -10 18 -10 40 0 22 5 40
10 40 6 0 10 -18 10 -40z m92 -61 c-10 -46 -21 -77 -24 -69 -2 8 -1 28 4 45 4
16 13 50 19 74 19 76 19 38 1 -50z m-172 65 c0 -8 -5 -12 -10 -9 -6 4 -8 11
-5 16 9 14 15 11 15 -7z m-60 -34 c0 -5 -4 -10 -10 -10 -5 0 -10 5 -10 10 0 6
5 10 10 10 6 0 10 -4 10 -10z m-153 -96 c-3 -3 -12 -4 -19 -1 -8 3 -5 6 6 6
11 1 17 -2 13 -5z m238 -4 c-3 -5 -10 -10 -16 -10 -5 0 -9 5 -9 10 0 6 7 10
16 10 8 0 12 -4 9 -10z m75 -62 c0 -26 -4 -38 -8 -30 -8 12 -4 72 4 72 2 0 4
-19 4 -42z m37 -16 c-10 -94 -28 -122 -21 -32 3 41 8 78 11 83 12 20 15 2 10
-51z m-347 32 c0 -2 -7 -4 -15 -4 -8 0 -15 4 -15 10 0 5 7 7 15 4 8 -4 15 -8
15 -10z m210 -14 c0 -5 -7 -10 -16 -10 -8 0 -12 5 -9 10 3 6 10 10 16 10 5 0
9 -4 9 -10z m-215 -20 c-3 -5 -10 -10 -16 -10 -5 0 -9 5 -9 10 0 6 7 10 16 10
8 0 12 -4 9 -10z m82 4 c-3 -3 -12 -4 -19 -1 -8 3 -5 6 6 6 11 1 17 -2 13 -5z
m-197 -36 c0 -36 -4 -35 -14 5 -4 16 -2 27 4 27 5 0 10 -14 10 -32z m250 -8
c0 -5 -7 -10 -16 -10 -8 0 -12 5 -9 10 3 6 10 10 16 10 5 0 9 -4 9 -10z m-210
-91 c0 -16 -4 -28 -9 -25 -8 5 -3 56 5 56 2 0 4 -14 4 -31z m389 -5 c0 11 3
17 6 14 5 -4 -20 -137 -27 -143 -2 -2 -10 0 -18 5 -13 8 -12 10 3 10 18 0 22
24 19 115 -1 38 0 38 8 10 5 -19 8 -23 9 -11z m-356 -19 c-3 -9 -8 -14 -10
-11 -3 3 -2 9 2 15 9 16 15 13 8 -4z m14 -37 c-3 -8 -6 -5 -6 6 -1 11 2 17 5
13 3 -3 4 -12 1 -19z m-30 -10 c-3 -8 -6 -5 -6 6 -1 11 2 17 5 13 3 -3 4 -12
1 -19z m30 -70 c-3 -8 -6 -5 -6 6 -1 11 2 17 5 13 3 -3 4 -12 1 -19z m323 -32
c0 -11 -19 -15 -25 -6 -3 5 1 10 9 10 9 0 16 -2 16 -4z m-270 -45 c0 -4 -3
-11 -7 -14 -9 -9 -43 23 -43 40 0 11 5 10 25 -3 14 -9 25 -20 25 -23z m137 33
c-3 -3 -12 -4 -19 -1 -8 3 -5 6 6 6 11 1 17 -2 13 -5z m97 -25 c8 -44 8 -68
-5 -112 -15 -56 -23 -37 -9 21 8 35 9 61 2 86 -6 20 -7 36 -2 36 4 0 10 -14
14 -31z m-114 -9 c16 -16 17 -20 5 -20 -8 0 -15 5 -15 10 0 6 -18 10 -40 10
-22 0 -40 5 -40 10 0 19 69 11 90 -10z m85 -65 c-4 -25 -9 -44 -12 -41 -2 2
-1 25 2 51 4 25 9 44 12 41 2 -2 1 -25 -2 -51z m-96 31 c-11 -9 -90 -16 -84
-6 3 5 25 10 47 10 23 0 39 -2 37 -4z m-62 -60 c-2 -6 -12 -10 -21 -10 -18 2
-18 2 -10 -20 3 -9 10 -13 15 -10 5 3 9 1 9 -5 0 -23 -21 -20 -30 5 -14 37 -5
63 21 57 11 -3 18 -11 16 -17z m-10 -90 c-3 -8 3 -26 14 -39 21 -28 24 -37 10
-37 -13 0 -40 61 -34 77 3 7 7 13 10 13 3 0 3 -6 0 -14z m67 -51 c3 -9 0 -15
-9 -15 -8 0 -15 7 -15 15 0 8 4 15 9 15 5 0 11 -7 15 -15z m-20 -72 c-5 -18
-3 -24 5 -19 6 4 11 3 11 -3 0 -21 -20 -21 -24 1 -7 33 -4 58 6 52 4 -3 5 -17
2 -31z"/>
<path d="M7605 1890 c-3 -5 3 -10 15 -10 12 0 18 5 15 10 -3 6 -10 10 -15 10
-5 0 -12 -4 -15 -10z"/>
<path d="M7675 1870 c11 -5 27 -9 35 -9 13 -1 13 0 0 9 -8 5 -24 9 -35 9 l-20
0 20 -9z"/>
<path d="M8396 1864 c-9 -24 -8 -24 19 -12 13 6 22 15 19 19 -9 15 -31 10 -38
-7z"/>
<path d="M7758 1848 c5 -5 16 -8 23 -6 8 3 3 7 -10 11 -17 4 -21 3 -13 -5z"/>
<path d="M8500 1850 c0 -6 -10 -8 -24 -4 -14 3 -33 1 -43 -6 -15 -9 -12 -10
16 -4 22 4 31 3 27 -4 -7 -12 2 -42 13 -42 4 0 16 7 27 16 18 15 18 15 -11 10
-28 -6 -29 -5 -11 9 11 8 24 15 29 15 4 0 5 5 2 10 -8 13 -25 13 -25 0z"/>
<path d="M8555 1840 c3 -6 1 -10 -6 -10 -7 0 -10 -3 -6 -6 3 -3 13 -2 22 4 16
8 16 9 1 15 -10 4 -15 3 -11 -3z"/>
<path d="M7840 1830 c8 -5 24 -10 34 -10 26 0 18 6 -19 14 -22 5 -26 4 -15 -4z"/>
<path d="M8967 1827 c3 -4 -1 -7 -8 -6 -18 4 -59 -10 -59 -20 0 -4 -19 -27
-42 -51 -23 -24 -48 -53 -54 -66 -7 -13 -19 -36 -27 -51 -31 -60 -47 -105 -41
-115 4 -6 2 -8 -3 -5 -7 4 -11 -2 -11 -16 0 -12 -7 -41 -16 -64 -9 -24 -21
-72 -28 -107 -7 -36 -16 -62 -20 -60 -4 3 -8 -6 -8 -21 0 -23 2 -24 20 -15 16
9 20 8 20 -5 0 -8 4 -15 10 -15 5 0 7 7 4 15 -4 8 -1 21 5 29 16 19 21 79 9
94 -8 9 -7 11 6 6 12 -5 16 0 16 23 0 16 4 33 10 39 5 5 11 18 13 29 1 11 10
35 20 54 9 19 17 38 17 43 0 5 9 27 20 50 17 35 17 42 5 55 -19 18 -19 29 -1
36 10 4 12 0 9 -14 -8 -31 13 -22 27 11 7 17 16 30 21 30 5 0 6 7 2 15 -3 9
-2 15 3 13 5 -1 32 21 60 49 36 36 46 51 34 50 -10 -1 -16 -5 -13 -10z m-27
-21 c0 -2 -8 -10 -17 -17 -16 -13 -17 -12 -4 4 13 16 21 21 21 13z m-178 -318
c-7 -7 -12 -8 -12 -2 0 14 12 26 19 19 2 -3 -1 -11 -7 -17z m-12 -27 c0 -19
-12 -41 -23 -41 -8 0 -8 3 0 11 6 6 9 18 6 25 -3 8 0 14 6 14 6 0 11 -4 11 -9z
m-45 -191 c-3 -5 -11 -10 -16 -10 -6 0 -7 5 -4 10 3 6 11 10 16 10 6 0 7 -4 4
-10z"/>
<path d="M8130 1809 c0 -13 28 -18 33 -6 3 7 -3 13 -14 13 -11 0 -19 -3 -19
-7z"/>
<path d="M8660 1206 c-8 -6 -16 -16 -16 -21 -1 -6 -4 -23 -8 -38 -5 -22 -4
-27 6 -21 10 5 11 4 1 -7 -7 -7 -13 -22 -13 -34 0 -12 -4 -25 -9 -30 -5 -6
-11 -31 -13 -57 -2 -36 0 -44 9 -36 10 8 13 5 13 -10 0 -12 5 -24 10 -27 8 -5
8 -11 1 -19 -6 -7 -7 -23 -4 -37 3 -13 2 -21 -2 -17 -4 4 -8 24 -9 45 -1 28
-6 39 -19 41 -16 3 -15 -3 8 -64 14 -37 28 -70 32 -73 3 -4 4 1 1 9 -3 8 -1
43 4 78 7 47 6 67 -2 78 -8 8 -8 14 -2 14 5 0 15 14 21 31 15 43 14 46 -8 21
l-18 -22 1 29 c1 16 6 27 12 24 17 -6 26 25 14 48 -7 11 -7 19 -1 19 5 0 12
-6 15 -12 3 -7 5 -2 4 12 -2 14 1 31 5 37 5 7 2 22 -5 32 -11 15 -17 17 -28 7z
m10 -56 c0 -5 -4 -10 -10 -10 -5 0 -10 5 -10 10 0 6 5 10 10 10 6 0 10 -4 10
-10z m-5 -69 c-6 -5 -25 10 -25 20 0 5 6 4 14 -3 8 -7 12 -15 11 -17z"/>
<path d="M6130 604 c0 -8 5 -12 10 -9 6 4 8 11 5 16 -9 14 -15 11 -15 -7z"/>
<path d="M3075 314 c-27 -7 -60 -14 -71 -14 -35 0 -48 -24 -25 -44 11 -10 18
-23 15 -30 -3 -7 9 -25 25 -42 17 -16 30 -38 30 -49 0 -11 -3 -14 -6 -7 -3 7
-23 12 -50 12 -46 0 -80 21 -68 41 4 6 16 8 28 5 14 -3 7 7 -22 34 -57 53 -93
51 -102 -5 -4 -21 -12 -41 -18 -43 -6 -2 -9 -8 -6 -12 11 -18 15 -103 5 -115
-6 -7 -8 -20 -4 -29 5 -12 19 -16 64 -15 l58 2 -16 34 c-12 26 -14 38 -5 51
11 18 20 18 88 5 39 -8 40 -9 41 -48 l1 -40 131 -3 c114 -2 131 -1 126 13 -3
8 -10 12 -15 9 -5 -3 -12 3 -16 12 -4 10 -2 19 5 22 20 6 13 20 -10 24 -19 2
-24 11 -29 46 -3 24 -10 47 -15 50 -19 14 -42 90 -31 101 8 8 5 11 -11 11 -25
0 -28 10 -10 28 16 16 -21 15 -87 -4z m-175 -119 c0 -8 -7 -15 -15 -15 -13 0
-14 3 -3 15 16 18 18 18 18 0z"/>
<path d="M2635 219 c-4 -6 -14 -8 -23 -4 -8 3 -23 -3 -33 -14 -16 -17 -16 -20
-3 -25 9 -3 28 -6 44 -6 16 0 30 -6 33 -12 3 -9 13 -5 31 11 14 14 26 19 26
12 0 -7 4 -10 9 -6 5 3 12 1 16 -5 3 -5 16 -10 28 -10 30 1 -69 49 -103 51
l-25 1 25 8 c23 7 23 8 3 9 -12 1 -25 -4 -28 -10z"/>
<path d="M6660 214 c0 -5 68 -44 76 -44 5 0 1 5 -9 11 -9 6 -15 14 -12 20 4 5
-2 6 -11 2 -10 -4 -15 -2 -11 3 3 5 -3 10 -14 10 -10 0 -19 -1 -19 -2z"/>
<path d="M2383 156 c16 -13 13 -15 -30 -25 -61 -15 -91 -33 -48 -29 24 2 30
-1 31 -17 1 -11 2 -35 3 -52 1 -35 25 -45 49 -21 9 9 12 9 12 -3 0 -12 2 -12
10 1 9 13 10 13 10 0 0 -8 9 3 20 26 26 55 12 108 -33 124 -39 13 -46 12 -24
-4z m10 -53 c-7 -2 -19 -2 -25 0 -7 3 -2 5 12 5 14 0 19 -2 13 -5z"/>
<path d="M2990 160 c0 -5 7 -10 15 -10 8 0 15 5 15 10 0 6 -7 10 -15 10 -8 0
-15 -4 -15 -10z"/>
<path d="M2169 118 c-41 -9 -48 -13 -51 -39 -7 -48 12 -74 57 -77 30 -3 37 -1
29 8 -8 8 -9 22 -2 46 5 19 6 39 3 44 -4 6 4 14 17 19 29 12 7 12 -53 -1z m-6
-34 c-23 -17 -33 -17 -33 -1 0 6 11 13 26 13 23 2 24 1 7 -12z"/>
<path d="M2615 121 c-24 -5 -31 -12 -33 -36 -3 -19 2 -33 14 -42 12 -9 14 -16
6 -25 -8 -10 -1 -13 34 -15 31 -1 44 2 44 12 0 7 4 15 9 17 15 5 15 30 0 66
-14 32 -20 35 -74 23z"/>
</g>
</svg>
